<mxfile host="app.diagrams.net" modified="2024-09-10T07:36:58.590Z" agent="Mozilla/5.0 (Windows NT 10.0; Win64; x64) AppleWebKit/537.36 (KHTML, like Gecko) Chrome/126.0.0.0 Safari/537.36 OPR/112.0.0.0" etag="K5b1llIK7bJSvKmqmjm_" version="22.1.18" type="device">
  <diagram name="Page-1" id="WHhZD-1aZ-mfAOcOrMr3">
    <mxGraphModel dx="1030" dy="465" grid="1" gridSize="10" guides="1" tooltips="1" connect="1" arrows="1" fold="1" page="1" pageScale="1" pageWidth="827" pageHeight="1169" math="0" shadow="0">
      <root>
        <mxCell id="0" />
        <mxCell id="1" parent="0" />
        <mxCell id="RZ4zh-SZTSbHHupTfMwR-51" style="edgeStyle=orthogonalEdgeStyle;rounded=0;orthogonalLoop=1;jettySize=auto;html=1;" edge="1" parent="1" source="RZ4zh-SZTSbHHupTfMwR-18" target="RZ4zh-SZTSbHHupTfMwR-44">
          <mxGeometry relative="1" as="geometry">
            <Array as="points">
              <mxPoint x="540" y="171" />
              <mxPoint x="540" y="171" />
            </Array>
          </mxGeometry>
        </mxCell>
        <mxCell id="RZ4zh-SZTSbHHupTfMwR-18" value="" style="shape=parallelogram;perimeter=parallelogramPerimeter;whiteSpace=wrap;html=1;fixedSize=1;rotation=-90;" vertex="1" parent="1">
          <mxGeometry x="446" y="146.25" width="75" height="50" as="geometry" />
        </mxCell>
        <mxCell id="RZ4zh-SZTSbHHupTfMwR-19" value="" style="shape=parallelogram;perimeter=parallelogramPerimeter;whiteSpace=wrap;html=1;fixedSize=1;rotation=-90;" vertex="1" parent="1">
          <mxGeometry x="430" y="146.25" width="75" height="50" as="geometry" />
        </mxCell>
        <mxCell id="RZ4zh-SZTSbHHupTfMwR-20" value="" style="shape=parallelogram;perimeter=parallelogramPerimeter;whiteSpace=wrap;html=1;fixedSize=1;rotation=-90;" vertex="1" parent="1">
          <mxGeometry x="333.5" y="133.75" width="90" height="60" as="geometry" />
        </mxCell>
        <mxCell id="RZ4zh-SZTSbHHupTfMwR-21" value="" style="shape=parallelogram;perimeter=parallelogramPerimeter;whiteSpace=wrap;html=1;fixedSize=1;rotation=-90;" vertex="1" parent="1">
          <mxGeometry x="306" y="133.75" width="90" height="60" as="geometry" />
        </mxCell>
        <mxCell id="RZ4zh-SZTSbHHupTfMwR-22" value="" style="shape=parallelogram;perimeter=parallelogramPerimeter;whiteSpace=wrap;html=1;fixedSize=1;rotation=-90;" vertex="1" parent="1">
          <mxGeometry x="191.25" y="118.75" width="110" height="77.5" as="geometry" />
        </mxCell>
        <mxCell id="RZ4zh-SZTSbHHupTfMwR-23" value="" style="shape=parallelogram;perimeter=parallelogramPerimeter;whiteSpace=wrap;html=1;fixedSize=1;rotation=-90;" vertex="1" parent="1">
          <mxGeometry x="170" y="122.5" width="110" height="77.5" as="geometry" />
        </mxCell>
        <mxCell id="RZ4zh-SZTSbHHupTfMwR-26" style="edgeStyle=orthogonalEdgeStyle;rounded=0;orthogonalLoop=1;jettySize=auto;html=1;entryX=0.6;entryY=0.35;entryDx=0;entryDy=0;entryPerimeter=0;" edge="1" parent="1" source="RZ4zh-SZTSbHHupTfMwR-20" target="RZ4zh-SZTSbHHupTfMwR-19">
          <mxGeometry relative="1" as="geometry" />
        </mxCell>
        <mxCell id="RZ4zh-SZTSbHHupTfMwR-27" style="edgeStyle=orthogonalEdgeStyle;rounded=0;orthogonalLoop=1;jettySize=auto;html=1;exitX=0.5;exitY=1;exitDx=0;exitDy=0;" edge="1" parent="1" source="RZ4zh-SZTSbHHupTfMwR-22">
          <mxGeometry relative="1" as="geometry">
            <mxPoint x="300" y="157.76032250852384" as="sourcePoint" />
            <mxPoint x="345" y="157.23" as="targetPoint" />
          </mxGeometry>
        </mxCell>
        <mxCell id="RZ4zh-SZTSbHHupTfMwR-43" style="edgeStyle=orthogonalEdgeStyle;rounded=0;orthogonalLoop=1;jettySize=auto;html=1;" edge="1" parent="1" source="RZ4zh-SZTSbHHupTfMwR-32" target="RZ4zh-SZTSbHHupTfMwR-23">
          <mxGeometry relative="1" as="geometry" />
        </mxCell>
        <mxCell id="RZ4zh-SZTSbHHupTfMwR-32" value="" style="rounded=0;whiteSpace=wrap;html=1;" vertex="1" parent="1">
          <mxGeometry x="50" y="124.33000000000001" width="100" height="73.85" as="geometry" />
        </mxCell>
        <mxCell id="RZ4zh-SZTSbHHupTfMwR-29" value="" style="shape=image;verticalLabelPosition=bottom;labelBackgroundColor=default;verticalAlign=top;aspect=fixed;imageAspect=0;image=data:image/jpeg,/9j/4AAQSkZJRgABAQEASABIAAD/2wBDAAYEBQYFBAYGBQYHBwYIChAKCgkJChQODwwQFxQYGBcUFhYaHSUfGhsjHBYWICwgIyYnKSopGR8tMC0oMCUoKSj/2wBDAQcHBwoIChMKChMoGhYaKCgoKCgoKCgoKCgoKCgoKCgoKCgoKCgoKCgoKCgoKCgoKCgoKCgoKCgoKCgoKCgoKCj/wAARCAF4AfQDAREAAhEBAxEB/8QAHAAAAgMBAQEBAAAAAAAAAAAABAUCAwYHAQAI/8QAQhAAAgEDAgQFAQYFAwMDBAIDAQIDAAQREiEFMUFRBhMiYXGBFCMykaGxB0LB0fAVUmJy4fEkM4IWQ5KyCFMlotL/xAAaAQADAQEBAQAAAAAAAAAAAAABAgMEAAUG/8QALBEAAgICAgIDAAIBBQEAAwAAAAECEQMhEjFBUQQTIjJhcRQjQoGRoQVi8P/aAAwDAQACEQMRAD8A2vDoFWIIANIGDq+K8BSt8WTX9Eby3Cv92pHvWfLHdRBKPsqjiK7HPwalTQWqQ2WNYbXYDI3q0XrZeEqjQLCmqQySZPX2FMu7Fm3ILa1huULKoINPxtEYxdFVlbRwXWtiPgVNQtjQe9mmgvVXADDTjpQtJ0WtHksiTyKOo5UW0VUV2eT2sDJkhNt6ouNDqXgXvOkcmmPBzXOvA3FB1nfBV0yA4x+IUVOVE+CYV9qtXHIfWuaSQeFbKJFilcMu3Tes7u7E1eguNI2jw2NVVi6RVOimePG6kD3FG7QdMiPKKbnNc4cFbErYvu4VZvSQHHImk4KXkdR9koLYsQGclee1M9KhWMY7ZGTSDg0FGwH0Vl5T6s5Hag40JKi2a2DoBS8L2Kl4R7bE40/iOeX6VSMv+LKvZ9LGYxyI60JxrZBqtg1xGTExTKntSVa0FOweNC6kOM55UvemEqliXZCCuKnL8kp6KU4XC0gfCbdMU3C0cooY+SkUWAdu1M7oDgkUNZiZWYdMDFIkBxQvnseYGxI+NqWvBKvR48QhtSoAAUGuS1ZogL7GIics2/auj2BxT2OmVBCCefUVRydHO0JriKSSU+UMb5NQqujPVkoB5JGsHV80Va7KRjWy6SdZCFIGOu9M5NqmJKaPbmICPfenhJVRNT2WW8AjjGDg450y1GzTB6sLjdzs4GSNsUYNIMsra2B3MG5ZOWOvKi+xO9gcsJH4VO+9TfsjNMoUNGTtt7UlsEG0F20imJsjJpmrKtrplbuurI59aVSceiElR9InmKCDyq6m6KwkiRtBLAzY64FdyRSMUX+HLZ4oZlYfzbVCa5M24K40KuJWqveyhd2G5I7U2FtGOepMDisZWk0Zyc51dhWlzcmCrI3dvLFKBIMJ0NCbbVHfW2UtlcZGTWOScZf5IShT0SijD7YBYimpVsSUZJHktrIFJGcHoDXLK4ION6BJYi4Kn8OxqalLtDqSej6EfZwMKcdh1q6fFWMnRC6sYpisinKk5IFFvkkzpQvZKWxkng0x7KQcYO9HjySQkotrQNa2sqsGH4l71lyfn8kUmmB8RjMr6goyCMk8qso2rL8FRS1yiqElOVO2rsapBeGCK5FMds8Nw+WYZ5NTcHFovDHWiJmu4mZGj8zB2bblRf2/8ehqfo6Jw6bXKEKnB3zmn6dFox10MZ40fGnbT0rm6BKF9i2fXHMScBQBU5yFlDRc1w7qoKnTjeltiNPpFugNEDjBp+VHKLj2EWzeTDpTYCnjK1QzlGj6NBJJg9Bk0vPdEk1YQ0H4AP5hsM8jXOmVBluHgn0yE6ScClu9DxyJaLp7vzAFJGOhNDdncvRNYERSxO2KdUiuNuWgO5uf5QSAOYFWTvR0pcQO1aTzlDvhScrvQm1xYYts0sOoRBjuRWWWiU3RZ57lTpAwOdNB2Pjny0VSXp0jVvn6Yq60i/RUJHxg8jypJJsV7Vni5LYGc/tRxxpWzk6G8UGiMHNLOLWyU3Wy60j1ZOeW1dDYYy5Fsh8o43IppqtHSVg1xKyDIPvSq6Ak0F2Z9BcgVSKS2UKr24Ty8c87k9qGScXojOkmLhNkEc6jGXZBZEmECIoFLbkb0r9jX5K7hBIM9elDI+SRJyt7F11HLGQ8YzuNutPao0RYapae2yRh+m1c+gzdntlIwJDddj2qafYEvYNxItEG0jlvkdKCElEAhH2k4c8vajetBg9kHXy21Dcg42pI9lJ1Wiu7vWWPQudR51opVsg3a0e2k4SLU49zUpLRNSpkGnWc5xgDO/ep1yKraCbe1hZQcDfmRXSR31xauic2CdAOr3pNx2Y5Q8IkhxF0+ta4p0VhaWyUcyYGW3pexmiSXcbPoGknljrTXQyeqJTRKdOM+2KnJ0dJLwCXEa6fSME8zRTXgRUgDUQCCfTQbtiSdAhly7KN965xBSlsLtCdWkk78q5WgxQ8RBFZtgajgn5rujVHSYtsroxeZqyC24B6Vy3sEZtCO/mf7cHB9JxkjpvS3TtGeTbkxzw+JirTHZgMVWMrZWCYLxGN7pggOnHSqc+RSM09A8FnJ+HST0J71LyK6bPJbfyyx0hSOdLlg5dE5x8FK3GzoRtjb3qMYtaYIqlRQgA1pg5JyP7VWC4iqGyJ9DMGTlsMin67KcaPbd43dRgAnbn3rnXgZO9BLhbbKvgr79KaL49nShSFV0ZIcywrqQjfG+Kzzx/rkyUYbIyQxyRh37ZIp10PwaRn7y0KZYY0nJxTp10LG14KoZZ4vKV1LRHqen+dqo8jST8FlJN7NN/plvdIkyuV1KCR2NXjKFdleX9jy1VSoxkPUZO3aCpUFu7xoJCMj8JpXdWdKV7JalkjDsoGCM4qbsm5BEcKGIkDrTclR3JEbbEk5D7AnnScrZzkmGSxIGwoHvimvi+xHCzxLULIrA7kbk9KCkIo0Hrpji3xkHOo0/JFUK7+3aViy8icipyb7R0o+QWO3K7jcjmTRU9E7LkikJwSdJ5DOaW3dlYyrokbDUCR+Lr71VZNBbtFdvYssis4yw/ShzsEJMcPlIwDjPaklYMt0XQFfJwQNtyKMJcQY247ARw9pp9YyFY7CqfY3ot9vLQX/prRkZO37Vyk7F5s9urZ4xqUAADOAKq5Uui0ZpnwunMY2I2x8GpylaJZJltnd6Bhzv7UkZUThPZ7c3JkYaSKM5WaeS8k7Vwx0yMM5608HZydqxixVEGgZAHWi5eEK2yh4UliJzg0HG+xH0K1jIlyoxiptV0Z2t2GSzjyNJO5GM0jlSoZNJA8AMhOOQpVvQnBsIMGpMPue9PstDsjBhMpJy6GmTfTD2TEI5oPSeXzXOPoLvwDXsZeNs8yvIipNNAbEZYxfg2PUUtidOwYNKXLtkDpTw7Dysrmk1yerAONqpJ+CTdEpjqUKg586RsRbPbePSmHYEmgtjN0E5MSZBI9qDVHfZeigztgnNFRsDVqzxpnK8zgCrJ2qOVoqZmKY6mpNC2fQRtHKGJO2/OjVJBk9DFLslU1HkcbVNic35LFwynrg5rk6HlJJAssOpmCDON8UU7ZNNyYre3aG6JbGjp804ZWmNYCgIOAOtFjRdsPS5Vk0ge+KWi/LwLrtE8s+Wdz3oJ6E0Dx2q4Jk5AYorao6g2CXy10jBGMUY6GUqPvLJPmYz1qbbfRBtp2iMdwit95uOijrXJuykG32L+Js0mWA0g9+Zq1spIX229wAR81NU2LBpsYz26Noddn7VWUdWaHjXgrNvGZV1AkFtyegpJySaJSVMrvrVICrJjCjJPc1Rx1R3DjsrhjPEY8dQcEjrRVPXoeK5AyRG2fy5M4yduVdJIdwUQHipeJ10ghG3ziotpaEl6FrK7+lSSSTjbpTJkktjK2tkYorqCpOCeWPenW1TQ6jeiuWG4t3McR9HMUuRKMqD9b9mj8wJOsac8dKaTp0LklXQdIBKoJwCOYzQ5XoKk2iktpGlNgOlCRJkobhjhTjfrUmvAgwhWMR5JHcdzTUUSstRW/ET6ulIVvVFN3O0ZBoR12L5shBdeZIPM/COtB3aOTstubsKAAN2/amtgcvAslvCn4l2zzFFx9CUy20vzKcHYZoQbGj2MrJzjc4H70GmOtlsrhWyDj2oRtCvXR5JICuapLo6Um6KbW5BlK9KjGf6oTl4G1tPpdSM7dKs5UFOmET3YRBkc/0ouVMpKSW0Wx3MUsZBHTBqkcikqOhNC24IUnTspPI0tgbQAwJkGBgV1E63aLQpHI86lkdaRSUi+JwpAYb455qmJ/nY8ZcVQzg9UGM+rvmqQdixnbAFunFw0THY8sda7luhm7CJgFww270HKhZ0kUugkAPTpWeVtkU7CrCDyomzvk1aEa2XxrRbJKoLaTknfanryPrwKLud9T6eZG3zSy1sm9FnDbqRkAfZgcEZzijBt+AxlZbd3CnIfc88109aElLehNPKrHSSrH9RU+KFUvYJOrqh0AsKDtM5MTq0r3flhSehNd2xZRG9vbspAJ1dcVOdpitNH08TLICOXegpOIrmG24zbyFvxZ2pozvsaNWL3tzJcMVH3Z5Crxfgr4L9CiNlG596K0KLn1xMSRsaDiLw2MLWVJAQwxj9aWbpIZJeSm5OjONxnb2qKdizgu0FwyKYzvuRtTaojOR5DMGffGc8q6PYYdl15bCeDXEcFhtmrPZolC0BWK5Yq4Ixt8UosIqz2+JiwynYe1BsM3QPbu0jopOc0lElKxi0B8ld9jzp0qLRYGcRPuRU8kmuhZyVEpLz0hF1ZPYUU6JKV6BYwxZ+461SMb2WijyVWwfSTt1pn6RRq0BINNypJzj9aRIivywvzWacIvI7fFUbNUWe3GY5E9WV5k1mzxfPRGcqPOIPriUAjcb1qm6SObsGtZDA+pfyqdtbKQlSLJ2EjAuM96dO1bKXfYLdTxH7twSRnbGcVylXSOlTdlUEELP92BtvTKNg4p7Co0CltIGw3zT8fI0VWwdpEc50ntQ0dZ5bzmAtJJu2elRvj2ZnHyw+C5klVmGzH1AZrop1yDyJxSswywPvXNpkpbCbeaPSdWD7UVTOS9k4JWckrk+1clY6bCBctpxnNI9ofkiEjmX0/XNTb2BtPRB0EQGN80/ph6IySK3PnyBopJidstSxS5hcg5ArqplXH2AeS9tclQCV5/FK9PQjivA4UsEyDuRsKDtoCsrlcovr51NVaGlGiuWTMferWkgNpIXBzFcZznO+BtWeVcmzNJtOx/ZXY9LEZ71RbWykZWRvb1Dtq3xkbU9NizbR7ZXBLqSSO1Ik09CRk7GV26+TkbNWtwVWjT2gKCZSCTjY7bVGbpUKrSoshIknbB2qEE5S30CFtl8kJ2wQfirSGm2XRs0Me53NMtLQqtAMQZ7ouQuxNcpWVhJNhUpYsFP51GU3dCZQ2C3HkDc6iM5p4LkrOxw0BXV59mTDbb42p4tpFE2j3hkqzEtnIIP70YsEJewTisLompBkCjKRSUbViu1u5Y3kyDjrmmxyp76FjVMnPcNPKMHSrLj69K6bTlom4gskUqurYLe47VOXZOQxtCGXdcsO9F7WzlKkC3SxQMZAoBJ3IoRfkdO+ypbgkFxsOQxSyV7ElPTLoXMozvjvU2k1szs9lkMcbHOwpYKg42VcPnDs+eYNViUlNrRJYi93gZ0881SPZ0JtKwy+jgAGrAzsM1SSo0QdqxTNGI29BNYMjblRDLL9Uip3JB1HahB06ZJzYLHM3mGNAxPQVahHt0MrCJjKfMXIO+9PFWPi7HMRULoBz101ybWjbyVUxdMVWclQVJ/em0LCSsheuHhODzqbVCZBXay+XcJ/xNGLEi/LG7cQTydORmqOSsZy9CeSZnmJUnTnvWVt9MST9krVtdwDgkAUYfyQsFsLZlEijOx5itUTQuyy4cMmo8sYFFyXRVrQA6K7hsgAGlj2TUb7DAqaCyj1AdKtSKqogEshklx/LnG1RZnk97JSR60GNgNjXPa0GLs8Koqqc75xXLoqj5lzIunqa5OhlfRC8tUYFs6GO1URXjoHjU25IO+o5zTQuL/QsNMHN0Rcahyxiubaejm34PC6Mc/wBanxQODItMJYNqnNrtkXJPslaXjIVQjC/0plPwMt9DkTI8Yx9aEpC5VSKyBr2696WPtklFUMbORFh06vV1qsZJDQkiJHmSkocKT+VL29Bk/IXFAEUk8+dBY7JrsBuZMsQT+dGq0yy2geL7yUL3P5UNE3p6NBw4eUgHPJ69K4aM2ym8dGm1Dc8vmlumUL7NRKTlQwFLOVaKQjezy+hB9ON6kobsE5C10xGdO596oZJyQjmeZLnGnYHc+1JJGdy2NrFjLHqBK4OPk03G1SLwetlzwPLkSElRvQjaYZUySym3PwciqchIxdnhvC/cjl2rlkfQ/KtEFm1jQxwf2qbabD32F25eFzggj96eNI566HUEynDe3ejLsMuhdeXrNJpQ+rtSTm+kLztUgq0fQS2ASedPBtK2VxqkTknDEAZ5Vly5LlRPJPYRBcMEA5jliteNNRorHJ+RVxQ+ZnUfoKosfLTAlZXwyfQoQHANT0tEtJjud1aMsRyH50Wk+zUsn5EA0tMQg9THIpJz1RGUk2eXKBCfTjfJyKEdgb0M7MB7cs6/i71WLp7IKd9n2mMO+nYcvmi2OKeJW/myBV5DtSUMlovs+E5hRXLEnfnTcXQrhSZOWNbbbYCilXZFkGjDgE75FNxQsHTIGAA4jHq9qScUlZolso85rWYmRSDjkafHJWIuqYr4jevPeKI1+K6dSWjXBqMaYxgt5JF9eQ3vUYx7MU3ybkwW6TQ5zseoqyw2iabsBtJTFerq6cjmpL+VFlSVmmleJoFKlfY1pl7OTuQujvfIuAWOR361hk6kO512HM8c9qZRhiCc1pxqM9MeCvoSpcK0kkR2GcCsrnTonk2yu7gQLrQ++5p+wLoV+eTMAwIz7V1q6JhbZ0/d5IPWlnF2GMeXQRYAx6tZ9WeVPCNdmhJxWyNzNIs+ApwD12p1OhOewwODBud+vtRktWW+xVQMIiw1A7fpSxbRPlSCrZPKGDuDVI62NDYLxBhbMGUacncYp5aC1RdYZlt2O4zvmk9gj2Xy2itHqDb88dK7pWXSVA+pI9xkb7ZoRp7OToquh58H3WzAZJHSrKVoe7VC1bhioin/ABJ7Ujl4JzCLdE8wtg6SK7RWLVF/+mwzetFbB579arGKkrG5IWcMs3UFZgMDICisuSOifDyWyW2HHLI7cqlBcSPT0GWdpNINS7VWrWwyTmi6ONkZg+5ziikiUoNFVw+l/Tn6V0khA6xuAieth8Uik0SbsJNzqyAee1UhJ2Uxg/kl3LS7gDbH9aLt7Nijo+OiM+jGRSN0TyRsbWUgmhbtiit9GZRpgsqFJSpB7ajS37NKaQdERbW+ep33pVFPZphpCe74yHlZV5LttT0Sls+tZS+7HOeVJ9T7MOWFSLJ7dWTUBu3WilZJRJ8OgKIBz3z/AJ+VMotKysFSDX1DUV04O2D0qVpFowctIEkty27kfShGVnSi4MhDbhiqqcj3qyQjjyBLqN4ZxjnzqeReTlrQwjfKLrGDSxfgPb2XeeUiwp50zjWxZqgEN94ZMn5orbJcmmNbSQtGufxHcmpylp2bIv8AHInks42696yypvRmlGU5aCpXMcRyNv2r0sclWiqjKPYmHmzzHORvzPWm5N9FV1osHof3z1qGQzSXkME+qPSWHLAxSxe6BGV6I2SpGzO+NRHOqUisXRVdXCSzHScgbGpObTJZJqToOgKi3AHani32JVLRbFCohyeZ5ijtm6EKSbBo41Muo4/tVJa6FDtQjXSWAPajxfoDjJ9IU3cBuH1ltI5DNLtdkfrd7PYkKAqd9s/FdyXQrgos+MixEsCMHmaWTSJqVCviaGYhhIdumK5JvYzt7ArIiC6VpF2703JR2y0ZWh7Hdxysig89qjHOnK0Qk/1QPxazYoZExjvXqLqiuPvYiWFZJhudYG+OlZssa2h5JBksUmhBqyBtzqf2KbozrQFKQFPmZBHakioy7Hi/AZbzYtjg86qtdFYytmfuZTHdaumaz5VyKZEmh/a4ngQls470ijpMyNNMWXOlZQAOuCDVZNPQ0XqglI1W3DL35e1NF1seH5YKlwUl9JzjnnnTtXseUr0FNIZgSoLH9a6iai7ZUodwVOfnnS8eQzjYfZIyoEJJxtXKPFUMl5L5I8AgkkU0daKx6BrqVWUq2c/FO37Of9ny3CRw4UgdeVC1WhE14B14gxk0ZIXripyn4D9ngnLEkqEg4+KKXgUoRmhLA5IopODpjp0USxC4OsbOdyT0FPx5KxlvovhQCMg5J9qpddhbsDWWSEsnYnrSi2x3Mi4AA50rSekWm2UGI6hjG2/KhwJ8fLCY7g26KmBk880HpBtI8nIkXWdie1GK8kZvkL2jOskZKiucbJpWeESDAzjtUJQfSFarwX2zMpGSO/xRi6KRVbDpLgGLSOZ6iqcrRphK1QBrJ/FnnStWTmNLGQx/Gd66xKGaBLhlZxt0zSNpvQqdM94ng25VTvVa1ZpcqRn24euSc4J69aVuiGy+zh0kaSfSaVz8EpDaKPzF0jnXRddiRg2yMCFXbORjYe9O5XopKDojcS6BpHQYOKzyFxycWCwyNKNC7E+/OpvWys5c6RC3WaO4w5OnVsfarRbqxoY2xxd8PE0YYMM42ON65u1RV/HdWmLbmCQRaQc4PMbVFcruibxOj6OJihByTiruM2uiEoTfg9ijVVIlOAT1qsMcvQ0Pjze6CRdRj8LIRjoeVJP4mT0anhnVJFZuQzBg649jRj/+PnLb0dD4s7tkpL1SAJC3LfbNaofBcVfId/FlfZZBPCmxkxnuNqt/pWvI8fjNeSueGSU+bCylDvzrLk+Lk8GfP8af/EqEM2cYx9aRfDmQj8PIeSyLGQskpU7A455NaYfCbW2aF8N/8mfRtAmhgrMTkEk9R0qsfgYotN7ZRfCgey8RjCnQSDt+IYx/5rVHBj8IqsMY9I8HE2CgBgc9CMD5p/8ATw9B4I+F7KcggAkYyvSkWDE+0D64ehdcecfXHcZYZ1BjvmqvGq0P0W2/FvLYR3DHb09yff8AesmT4qmSni5bsawXcLplXBztisM/izh1swz+NO2wHiOsbxkadiOtZckWuzJLG4gKTM4ORz5jrXDeKBru6EAwd81HNkfGhbQLw3ibNc41Yx786HxYfjYHLRr47sSRqhKkGtLzfXpgTaF/EwLUF4AASN67JPyVjO+xXDfPK+k8jtvXlyjLm2Sb3olxG1Zo8qcEjnWnHyW2GL8AduzRIsYBds4rZGWtlYOiKxs5w6hXJ5UG0kyrkM4bRrdRqY6em/KpxjqwShaPpoYtJZkz707VE6cWVhBJEQnbelcrjo670LVs2WXHQHcmhjyKPbNWKCb2OIofLgBX6e1FZLejTOKSPIYfMc7HA3Jq8X5MbWw+BVRgDuadjLaKL8lcAddhU+NPsCdMGghRgck77bdKol7KuqLZLaEtpJxt0puKJpbAha6JvxAg4xtvU3jdiPTdlsMLGQjOATtR4OwOaTLJrcmMjPMU8oWG/QvwoUYIDdaWOkMnWySMiowLerpvXWMpWDmEEk5571wKG08TuQ4VioHQU62apbZ5CrltlxjvSSlukSnaI/Z2eTLDak3ZK7ZC+LIAAeXWum66Enoot5guz5IPOuhL2xYzs8ublQNslh+GhPa0FoFhnZnwAR70iRyfgZxx6owW2HfvTxgWgqJJDltjkV1UNKLbG8NgTa6w3qPIUk+jnBpFlpqjyj99qnjXLZJKyF8WJyc4FVjLwLNtaByuqLbnjJ9q6TVCxyadg1vJiQqNqilbJuTtj7hjBYy7c32505ow6Wy1niaQhcYApqopk10LDiZpPLwd8Z+OddKFK2TeJwX6RREjx3YGnI6ms01fRH/kiXEJTGyNuFHYVbG7VGyMkmC3PiJUjCH045Z5Ee1ejj+LC7N0YoVycemQFhKApP8A1CtKxJeCiq7oWScWuZ2yJ3LE7HY1bgDQZbzTSnVJcIo7asH8tzXRVHNhBnVASsqkjmQ1dyro4+8y5G6Eb9WUUr2MWRJdsHLsWBGwxjB7j3oqSBRIExjLnB6tyOOnLbNdYUgy2vXgkDNmSMghcYGf7Glas5aYa3EBIMx+pc+qNjpJHcEcj/WglQzkCz3glQmMtlckaumBn/PrVIiOn4F93ekRMI5fu852HXrn2O1MK3XRUs6yGRsth/fb2/Y0a8iWyw3qRg8sswxjrtRchlXknFfEZR2AbAOSM/p2/uKVjaJpc6nYIjaQd2/3e1c20dSKrlA66SMORseePrXW2rF4iS8kvLNBh9SLyA2Hyf8AN6CFaLbfj4h9ErAlm3PNm/t8Cs2b4/PaIZcKm7NJ9maWFJoyA7dxj33rz5fHyejNP4k+kj254Wk1q3mfixyqf+nktyRnl8WcexVwXgvm3EisuhVP4j1rklWiMIcmNbnTbS+gnbbGayZu6BkjxKZ5vPxrx+dcuUuyXKiAtcMGxjcdKtkUfQ6g3sLnYfZt/wA6ZxSQyjWwHg0iNeATYxmhDYyaQ1ubWJp4nQbKedHIlaGjuaCOJIGh9J3HtTJWtM1zjSsUowAOo4PKhzXkmkX2dujA6RiprfRFUfXcGgnIGMc6i4M045cRd5rNOkfTPIVSOgSytuhmzhAq6eR51oTpI57IyXSR7ZGe5prAnXZC4HnKGydI7HnRe9i+Su4VoIVXlnp1NNTHVvQGFcvqy245UUnfYyVFLzywykE6himuiU+ymPi7+Zp8sjfFcsiuiMl5CkunlPrHTvQlLWhsVt02CyKZJNCtuTyIoGlxTWjxLOZ3BGc4I354o8W2CES0kxnSCRjpmu4sDWzVwTwm329JxjGelUTils1pqtFEksZjBUerP5VmbV6IznZW8irDkYJPeqXoi2vAEIxLknfepvZCTcmC3MO507YO+3OlapWgVSB47fXsSdutMGMi6SyWEZXJ2ycUzRdQLoMsAATjoOlOlY6tBBhdFBByaSfRSLLbbiM0TBW3U7Vlmmwzk6HMN1DNHg4279KONqOjLyoO8hJIgdlyOeKdtFYxUkKsRxyFZMYzQlFeTNKFSPH4dDM2YiA3tSS10GMLKLsSWmwbly7V0G32UacUD23nyiUx5ZgpP6VaOOUpaGxJ5JJXoXvfycLuA8+XgKlWVem/P36Vrnh5x4npZcKyRpnw49a3d0sVrcRiTZgGbSSPrWH/AE2W6R5v+lzRf9FniK9kgs9TMkcwHJ+Tf9q14fjfn9o3YcFL9LZyq48XLPxU28itC4bbB1b4516OOBelDSG9nLc3KDBJQ59ej/xVXoW2xvbRhGyVA5erIJ+Nhikb2MlQWpVdJcvljsA25FCwhMLouCW8oHYgjmKNDH0l7G0hWJW1c1IG/wDnKu40dZ4kl1JrCSLhDuzyBCM9Pb8q60dbKZZLhi3nKJl076WO/wCe4Ptk5oLZ1sHSaSMFYWOFGSsmc4xsRnntkf26niwN+wmG6LSLImopg7EbryBFFIB9MZMOyPll3zjf2+u/OmStgprYtWdpHePAzKuhgTgb77e3I/UUzjQvJls97K3lkKFGRnpsP8/Q1zjQAQzuBLIdzGyDBOQfSDj8xTKKS2cW2hYRMXkyQfV6tyxXfHxnFFqzg2PiawuxMmUQhFVB1Ayf0x+tSkqTHjQXbcVjmUt6wVIIGnSQO2PqKnbCG3Vqbi2Z/LVk7hcY60bOaMDxKZ+G3wllmgRByZ9S/kRtinuxKp7HHA/HaNMIZtDsW0r5LZJPYdc/NRkVVM6RbMs9st1HLEVwA8KtllOOp/rSAnG9Fk0CRcPeSHEajdQM5PxWD5GPjFuJ5vyMKxJyizLv5plZ5SQSdsmvN3ezy5Nt7CrONWJyc4pcmRrR0ew8MoOAQcU+JXtl4vQcpikh8twDkYxWxVJbQ+noV3HCvKYyxKGA3OOYpVFx2FY49MvilVosZ3xjep5HZzxqL0GQW+qIluQ3psfVM0JOS2Kb61dX9I9PM7VLJGlZGUtaKreZ4ioBPxmkV9GaPYS0rs4DqMdM9arGXhmh9H0VrCZtWQozyAp4pWCKthVxApUlNwehOao+y4hvLaR7g6/wjtsMV1IWUbHFtARCoXOBT1qifkqmHm7EbdTmmsrGTSspZTsN89+VNaoPJyVAN5C6tkKNRyaTojKDWyi1thMQ5XcHJ61yTe0JVl7W2WBjyWANFxdjKNHlvauZE058znjFK9DpvoKWQQ3HLJximUmmiinQDNKrSE710smxJS2MoJ1GwI25kVNppj/YXSnMRZTzqfRJq9gLO5U4yQOe/Om20IkQWYhgOTDoK66GcaGduiSoMkasZrnNeRNUDywBJMrtmjyvZ0YqyYjeUDA2606mmXU6JxWbRIXJyD0I5UU7CnZZHIrOqE755VzY/JLsnOiBGI3PLnSpWc2mCrHIJvQcLWacd2ZpK3of283lxKrHIGKdJItCVaBb+Dz1zGdyapKNoWavZXw+RobjSTtyNYskuLSDCARcos82l4HmXGSFOCD358q0/HSnJWV4JsU8VvUsIWVYFj6ggnUDjvmvVxxUVo248cY9Ixl/4glDSLOG0EbN+IfUdacvZT4R4V9vvZOLu6C2hOjVGu0jjfSgYdAdz05VwlcnSB/H/G4ZEdTI8edgrAY+KKVsd6RgOAXIWSSZIw/qx5jjJP1xy+taIpIzylbNzw+V2jWSQyMTyU+gfQf1oPehohsczli6k56AtuD8f3pBi9S5UkviM831b4rji1XV5fKC5BGctsAfk7n9qKS8nWMGktOH2zTzeVkAYTIYOcdxkD9DQbCmJ38R3E5LWMsZ05GhFD425E7dPffFI+xuSKV465LGUK64HpKcl9jjvt3GR9WS0daDILmK4XSh0q4ZTg7Blzv7Hrnrv81Uk3TJDyN3QYXK7Kf1+md/b4rjrRbY3MyN5DsJIJGDRkndD2z254ocUG7BJ7FtcsYUh9GUUDme4PLO1Py0TprsncIzIqg6RghlweW+f3/OipB8WKZjJHbZ2CKAXyTkDqfcYP8AWmasVbK2vXVgp5FjuDj1bH+mPrQeloNgs02qPT5vlaiQBzZRkH6HOeft71OVtDxPpOMTR3jjW6gPuyg78wPfJ/bHekaodNVo0PAuNRwCFWkBGk4ST1L25dK6gcrCPEvDDxPhry2hXIGoxAbt3xg1ydAkrRykAR3LyR645V5su7Ljvg5H5U0lyEi+LOj/AMP/ABCgkELtI4caW81juPcbf1qDVGm+R1KQC6s1jtziVF8wpKSCVIzkHlWb5EHKNIwfNxynG0IruGQFo5UZJBgkMMEZG1efLHxdPs8aUGuwZUKHTnNefmxu9CJB3DNIlUtlif0p8KbWy0Yqg++XWVMRwx5Eda1zeqj2GH8i62uDGipckCUj/M1fHKSjUjU6o9ntIxGZIxnbcVPLFJWjkgq0BZQrEDaoQbsd/wASNzAjgKOeMGtMlZjcG2Bw8NjiIcg7b5NI4qKsqoKJTcaGJFSjTYvbBniZRzxg52pv4hf5LbJ5GbckrncmhDJcqDF2ETGKVguADzrQ9lm6LWXyozr+MiitdE5KmDhVcFowD8CujLQ13orMMiqzlSNthzp1KzoqnYARK9wRglR+9M3ZRuy6S1aKMtFsDvqop0TlXYFZmQ3CoMsWOMUOVbJW30P1tlt4izYEhG/t7Vz9svFUtiHiEBNyZV/9tcjnz96i3yYkwC4GmUhQcU9InxJWYeSQsufTSSlb0dVMPld1hxvkc6lb2UF63hRdJGB+dWi9HKJGANcT6ip0jtU3G2LKLHSQFFDbgHYUssbT0SkmVySlZMOQVFTaoRya7GNlIrpvtjbFUjOkaFsZpDHPEUyNeOh/pVIzvRpjC1sWxWZhuSWA7ZHajZGWN2MZUXy1BUFRQk6GcGkDGEE5GB9aipN9E+LsrmSUqBkHPSg3fYVBkY/NjjXWfwnY5p4OUYNMPB1sDTPngt/Kc1mcbdE+TuhjK/lRiZ/Sueu5P0r0/hYWv0zbgVrkxFeRS36zSvEwU7LgY+vvXpUarb6MNx6FISWmVVY7JCmS7dMfPL86FJDN0HNxmWxSfh14Yo8RkwxqBlR1BGwB9+ppRuujk/ijipnSVWkSTTkAhs7fNVxx2mLOdLYT4WgcWtt577kErGMn4J7VeUvBnjcmba0jdYcK2XxuTyA9zUW7LpUGxuDIsELFpG/E/LPuewo0l2c3QwmyHSC2UNJ33AXHUmhFHX6Jx6LRNcui4uCf/uchtvt3/vTJtg4+WIPEd410gwdGRjGxJGOy9tt9+VFnJpdGYN5NDNpbS5GCjnbJyMHI7457ilUfYHOhnFxBAhjvJH0MCu5yR7gnnsQPbH0HcUcpNjOzk8tgQyksufQdmJ5H65ApkqAMLaZjINDqSyZBPI8sH6Y/WmVeTgqGSTXHIV0j8RU9wSf7/T5o0n0cFxTrcO0ZOoZDJnbffI+o/pSVQ3ZTxSNfKMqZIJByxye4BH0xRToDdiiWIy7oPSUKNg8gwI3+P6e1U6J8dgrwFjojQmZVJB1ZyRg5+e4659qkODpGtxM6IV5hlYHBBJIYe2NSn6nHOuOFkyPMzyR6tUn3hVcbNgA47chSyOoY8PhcIomIXV/NsAu36kZAp4xAanhF00Jj83QGIABTkPpSyS8FIi7xtwD7XbNxKwDs+nU6JnBPdT+9djnToScfJgeE3jW12Bp9WQdZXY/57flS5I+WNjl7OzeGuKxyGzuHZUuFkVRpbIfJwAQag/ZWrR0m8touKYMxzgZ0LgfOTU8mJZNmPL8dT0zLXlkI59HqAH5/WvLy41dHk5I8JUW2tnGpUySYfngHNGGOuy8IpKhnZWTzyMsYxj+YnZR/naqQxuT0HHhlui+bg1tnEtzI8g/2qox+tVeGu2a18VtWV3Vu1vb5Q+YnLlgipuOqJ5McsavwJoeItDL5X8oOCe1Z5VAzyy6obW8usoScknbb2q0WmQi23sGvneIjJJUnG9RyJrbHlJ0CQqzrqwd+lGFUIpeyhzJLIEVWHf01HJK3Qa5MZx6IoAADtzFUhBJJl4VFAcUbLcGVjuf0FOpbo6Uggus4II+lUVsTkrISqIBkZI9t65xKylROHiCBgrjA5bjalad6Hjki+xmy2jQHIQtsdh3qkNDScWtMCuFSeJlU7KPyzRnfgi1QLwzhr21y00igtggZO1DHd/oeEeOwXjN473AMZ9C7nf8AFTznyYOVsGdtfpPXnSSagtnNWC3HDC0pJk3rTHHKuxeLLIVEIGkcqyLXYyVIKkQuhDbHltTpWTj2Dw8MV5DqOd8UyRdUP7OxtkT8I2PKuk6LKmic1oOcH/486g5W6JSj6M9xK2kjySuCN89KEopmeULZLhzMUOTkA86CipBgqH3D1ZI9QJJbvVYYeKbbLRbWyE8mqUNv2NCQXlVnvmCTAJ9IFItuijmnEnNF5UJYHennjvom2vBRaiWVi5A0A41NyzU8eCS2NiTk/wAhrGEhYy5Lauq4P0FUcKNE8eqAXjhsy8khhds7Bn/pWz4/xIx/clsnD46Ttia74hC+uaaV5wuM4PM/7R/2+tbNRWjSkukZPivG724LySztBb50rHGPU3YCinYXSPOCcPSS+ee6kUrAvmv5Y3xkALk56nJ+KEugLcjJ+I5DcXNzcxS6bdZNYmYZLb7gd+Y/TvXJJ9BbMPxi5hv+KLaxrjQ2WLDljn7CtEI1shklbo1nA4V0LKW9Gfxt19x7e/Wlmxsa8mjJzb5YBU5pGdy3v/5pUrRRtoY+H7RgGnfdWJCZXOT3G1CT8AiMJVVVI1gnOcIMkn3x/m1dEYBuhEpJZVGf9ze3Y9venA+zL8TjNxL92zSZOwR8ntggbf5051wjENzY3yhozujn053HMHb5rgIJtG1xyl0dFJwxIyVO4/qR9K4HEb8NkUhANapkH2XbG/0f9+1FvyMlocWEjMGDqFCkYJ/l9vzxRXejhxGhMAJ0udQcDl057e46Ubro4FexZJEx6SBkDVjcYocjkHLi4t3Qu2tcFcEEDYdehGfjalTaGfRXp1JokXGkMMptjBGPz5/U9q4VAV7AsSF9C5IDMwXlgHDDHMHB+K4ZqhFMNVxJLGdTo7gsm4OFAG/vgflQk6R0bB+BeXd3reXkRMSF09M9fbbFRUtlHHRofE8vDeAcMtpbmET3Eykxr5gjUDqSem5PLnk+9XslRll8WwwsW+weVGRgzWcuvb3HP/DQdNButGn4Rxw+QsljLEEIDYcugYY3xzG/LP51zV9BuzL+OuEi1mXjNmitZy5abSCdO3N+hx/u5gc8gZHRk5fliuPDbGPgzjj6RCQgiYjBHQjtjfNQmnEtF2jq/BeNyXFmSi+ZIh3VcqTgkHAPPlnFdF2CSHNlxG14qNP3evkCGAOexpJ4Yy7RGXx4ZFbRXf3HDuGsBOwBGT6BkCpf6ZXbEj8ePVFUfH7Q/wDtXQEfPSo3qigl0aYwUeiY4rbun/pbWS4wPxM2B9B/c0XFD9FycTu1VvM4crQtswVyTj86lKKaA4RyLjIGuoofMWYK2h9lJ2I9jXn54VR5HysP1P8Aovs/Q643XOanaXRhTphF9plUkrg5zRkrKgaXKxHHPbkKpHoldBEN3DgZGxHag5JdlFljRMzQTEBiPrzoLJGWujnkTPZ4IHjKq2k45Zp1BKOgx/QujtJImbByveljHiFwdhA+9BU8yPy96eMk9j8rBpol8zVjfqB1rm7aDx8kbmPVHty5muk/Qkuyi2kaOTGSfakcvIOQ0uOIqEI/nOBn96f7IrRdTTQpkb71icAEnFDkrOaSdn2kaWJHPflXakqF5XaAPNYk/eHn3pIzaVNi2OTYrHEHYk45/OK0cNGuUNCu4uCJlVVI6/NdVMjQdYy/eBnGQO/LNUiFBF1dggBCR8V0op6K8vBTb8U8uU6+g2zWaUaFqthJvI7pdLBRqHaou2BxsstLaLSQo3quHXYvFjC2RY49xhVON60x0mFWhZcTxJK0ZBIDbCoONuiM9sojK68AgZOcUONMeKYTcu85VM4BOM9hVWuWivBvR5fSeVGkUJwcbEfyj+5qzjwRqTjih/8A2wC9ldYPKswzXD/hCnJ+T/emwQTfJkcPPI+UhfF4dCKbjiF0zTjdUyz6Nuw61plOjZDFJgXFuHyMiCK9CxqoQCSIrg9+dKm5DSgl52LuG8HF7csLV/OdPQjOwUMd87noACc1WqRF3Z5dzw+HZ5rO8lS4tp4Q87KrKMBiVVSeZJOD7Ujmmiqg49mD8RyNxCZry5URcPgGoRcixAyuT0GTnHM7U8daQr3Rho9El5PMuDqOCOv+f2rQrUdmd1ZvOBW5dEllU4UAjJ5Hof3qL7KwWh68LFsLlmbAxnc/XpTLo57Y3nuYre1ERc+WF9JG3XGfr0pUrGSoSPdtNOFgyABjmWA9jgUyVAchVxXjC2bGGOHz5x6iBIFRBzGpuZ+BTpA2zPweOzDcxq8tnJgkaFgbGOvqzn60Wm+kLaerOkiOx45wSK6tEWJ5FB5jCnmd+mcc+596nfhjqHozl9wx430og8kMXQBMajgE8+/9am5NDKJRwXWL+OJnHlSMANsg75PxsRz7UOYeOjTWNuFCyRlXVsMBnB3Hp+o3+M1VMXiN7Yi2UEDPpJGN9h0x9KItbL5LYPEUwS2NOVbGlv32P964bQrubN4ZpJIpNtQAKjGB1299tvauB0hnCguEYIyJMN8ufTjsfkCg3R3Evn4bqbEqkJ05nbPI55/1ruWhmrRmb+xWKOSFUSHLIV6bnYD33w30pJLQYrZR4dtFN9NblVR1c6SDvkct+vI/ryzSQjtjydD9vBHCfE8V1e8ck8ya1c21vbrLp8uJVDs+P9zMWGeygVrw45S6Zg+TOpJHPPFP8Np+D8Nk4rwKYlYTrNs/43XSWO3UgDPxVJ472DFkb0JPDXFlAWWB2jRt3Tmo7jH/AINZbptGt62jd2lwl1bvauzIlwmjKYOhjnDD235EVN+xu1Rg4eHS8M4ndA2qMsL6T5ZyrdQOhX2z/SjL9ISLadHYf4bcajigZLmKNUbYROVb86lFUyrXJDfjmi34x9392JYhNDJE2l9PJlbOQ2CD74xzqqdiLToyPi7iLvDrkLDSQGeNNbY5Z22H5GhLo5PYt4NxCOOMFVf1AgFkznB3wfpU7Q6Nxwm+cqHJWMDB1THc/CilbGpjS3lEzIY5I0lB54cKR7g7fWpTtFEtDy4t3aJVKZEpyozjS43xv0O+KzZFyjRl+Xj+yLSBSXgiVmUL9c/+azKNdnz7VAc18XLDOCO/Sirb6Hl0VwgyKXz1xTpeybi6KkuQHKsNhyrNKTkJWw6NC66lIz+eKaEC8Y2rPreCTzdWvl7VXoaCobW5Ys2RgDYmni70PbZfGiYZzjntSXxdUWhFdsTzyJqbcenNEX7F0LWuGdioOwHPrRSszNO+y3hWjzpGm56fTmiknLY8EvJTeti5Yp/7YOxPI10ops7Ja/iShcOwzuB1rq2VjLWwvMUgIbmKMu1QuuxNNCElYZPPNZpp8ib7G/2t5ItGefP3rfGXk2ObaoEkijDF3GW9xTaByLowrLsMd6CVgTon5UceAeWM09JbGjIXXulFVhjf9ankSe0NKaohYOZTqGwzioxj4JxlZoLZ/LdSCduvSn4qOxnJIZ/aYpItGoHP0ql6DFp6Ed/bYleQbe9SaElFJlMLKpOW2A5mgGJZeytZ2xkkDLh0z8FsflvT40+dl8d2WWt3FdW8lw6FxqIGDjltjH0rRKPJ0Vmk/wAme4rxp4XMdttJ10DOfYGrJUqRbHBQQBLftDbPLeTM5H8oPpHXA/rTRj7GlOym3nkuon9eZHO2eS7DkPiqN0qJoc8KBSSK1s1Qyy4OT/Ljr9f6+9TbsNbEHFrWJ7uWeeB2fU2dOxONuucfP0rqRSUt7MH4mS4awCgBHlkbyYojnSucbnf6mqwe9kpdGJ4NBNPfRQSYVVbUT0G/P35bVoyOo6M0dys6fw91gjSNAQpGAOedtqzmldDi2YpHrwvmAbczj/M0WFexRfXKtKUdyqIfxHJ379yR27/o4jdi151jiLxlk39ILZJ57E8vnHvS+bAlYs4HwJ/FIurlw44VatpkYHHnt1+f8NVxRcpUxM8uEdeTqtvc+F+CeEZrLiPALZrBdBcJArSbuFOsnBO5Uas5GfitkscUjBGNy0IbHgZ8MXvE7SSab/T47xoQMhgq6UYEntk6SR7GsU8bknJeD08U7ai/KG95apLaYklWPbUoOSzJzznl16Y2rPTZoarRko0e3uJNDeYzkCNdQUNk7gMTgNvtkDfAzuKWhXrY/hk1uWiQqHbV5ecY33wD9TjnvVlSEfscWqNpGpGfJGApycjnnrgg5pZSo4bwW7s5LIRqAw3PbpsB8DvkUFM6rC3sfOeHWg0HSxbdt8nK/Q/96PI6i9rHydB+8aPdtSRgDYg/XHxnpQuzgjSShVIk0kKEDZBXfn8+3vRGM7x7gV7l5VgaaEMMvENRXG499snpRT8HGQ4eXteMuC20gZwoHLHTPfp8YpG2roN2aPjXDobrhPDJkiC39pepdJ5xUxsR6hlT9On1xtWqWX64/gg8Nybke39zc3PnzcRmhihMkknlRDY55b8hjlvzx+WXP8nJlX1qI+L48YNSOXeFPBkl1e3N6009nbPI/koVU+Yuo+ogjYEYA/TvT3aUWc4+bGIt5OFcWis5JNQky8DZJz3A7Y7HvsTU5Ogw7K/Fmtpre4tATI4KMdh6eXPrggbf8gehoQkno6aro+4NPfiVrdZymjGVO0h645Y5EHbnTNJAUmbx457vwwsqTB1tZtQI/wDcjVhg/kd8dRmggy6tCu9s9QjusOikAto/z8Jot6O8i25uAZV8ryXZNj5a4IA7DO4+Ki15GQ64DHdcUjRbYaBneRieXcnnUZZKHto2Vt4UvYIlmj4nHJJy8p1KhvqT+9Jzb7A8ldjvhFzIsi21yGWSNg6r/wBJ5jpsCdqD7DKpx5InxiaO5MsRghF2fwyKCoc9j7nv+dSnK9tHjZYqbEn+nXDxBpY9B5YI3+KkvZF4JN2y6G3EduSxyQOXaq8SnBCgRSNOewO+Ky5Gk6Rkyd6GlvI0S4OwxzrozaKQbaoIiuVAJ2x3p1JsotKyxb8SSMq7k4oxlTOUr0gq/uBa2jlmxnFc99lZT4oyfn/aHLAnSTnr3p6TiY3N8guEKmTsMCjFUUTvZVNcxx6tJ50jtHX6JwXMUkRVs7cqCn4Gi7Wym3cxSDV+DtVIu+xui+RyW1IenPNB7laITbXQIC2+rnmlk9kuUvY0WJSQF5/NaEjbyZVPmJ/Ud65DonEQ2AuO5osMlSA7+Vxyyd8VzdJEgURmZlDjkd81Nu2FtsPECRRgKcdsUXroNNBlkjKhfO3QUIpvsXbey0SZk2O+N96skjRGDZVd3IC4KnTSypIaSpAcCa7u3wToaRdWOgyM/pU4q+xIumaLxYtr9hvEuH0i6jMZwN0I5H88GtWOHk9GMEjk0PiG54bw694fIdEpYvq6gHmQe2dx81dJJArdgNnxZJLkqmDuwUZ6AUyfkLdDGz4d9tt0S9lHlg63Gork6s8/jFc50dGLZoo4LONCsFy8bg6j5pyp+tTeTdMp9VdEba+hsbqNFvEglEhGvUCroQNK79dj+tMmmdx3sxfG+JXz2j3DyRCWe4lgjV1wkKoTrlI7jBIHx3p4uhHb6BeMfZ7Szd0cH7MpUt26AY58gT+Xemj3sSTpHPbCYLxe7LhTmZhknHpB6CrTukRgts2nCZTNJ5wYMV2Xfl8fSpWWWx2Z5BAse5djjn03/wC1cGQsntJJ7iO1Rgssh1FdIBC555P6VzexaaGvE/BiX1ukcHFBFGgw0SAaG7gkbn5yKKtbQ1eES8N8Jm4Fwh+H8ShH2PIiJQ5EwOcke22+ccxtWbLHLGX2Yn/krFwaUJf+j1glyQxlnvJBb/ZNUh28g6fQTjkSqk9cjnXSn8iapHQxYoK27GErWctslmzpEI9yFQuCTnJx07AewzW9T+vH9cf/AEj9Vy5f+CHiq/YPs9vbtJMpAIbbJbUdlwcYwD8EVB6KO+mIRA7cRLGF1YenIkGn3BHb5B+BSLsDVGhs0yhyAHDAsNRC/mOXyD2+KZugDuztlDa7tgY5DkJGSGbB/F7D/PekbsdbHlk4jYQ6QsbYGMa98ZHx+e3U0A0hpHe6IowI01EaRpBIHsWxuPfO+9cBpeBhbwa8eYhYNjfbbsff69tjXXQhZJbyDSFWRCQFBVS2Cdh+I564x0BxuKPJnWVwwyZf/wBOVdWyGIKkYJwDn4P5jHOjYWU8Z8J23HYWYrLb3qHKXCgawRyB5al6YI+o50U2Tvi7MP4ktL7hE8cN3GdAXCvghWA2Bwf250V0MpKQq+2qNIeGOTfI1qGwO4PP8u1MnQSqfickZk9CjSB15fl17HcbUDjL8TvYbm3jnZAksDalxuUbnkYzsRUpOw0rQJczG4gjjVgjXBKJ21gZHx/5pcV2zpugCwkvL7iFpc2rGG7t9UNxFINmAOVB75GojtitGqJpuzr/AIS+y6LpEtgi+bpbqVbfUufYg1JlVHWg+64dDMrfZrnOT6omGz/n1pW6GcaM3c+GrdDITBIdH3hG2U7kb7UrdoCjsd8FkWwjHmOWHRmH4l75HUdqlOCZzZsLXjawKixNb7nAODgflzPsKhtMnLoLung4g8UjS24nRvxxxsuD0zz3rrvYkJ8OisiBFM6FZGAyUT8a/IOK7iqMk5JSbFs/Gbe4jZYmw429XehUfJKeSxBbSTTSvqLKmdskHNZpZH0jNLK3oncTrHnyxvmkUeW2JGLYGt282QARk8s1ZJUXjGiBnMCsZiTnvypRnKkMuEMJZFkNK/0tEINKVk+NyyXmmOM+n+YUZJ9FsrUhZDF5K6TnIPblVccUkTcNWWwxSFDknPMkUX/QFGRRPbkg5z7UjTGSfR6LRoYw7ggAZ5VzgmrHUPJFZ9ZbHIcz2oLXRLJkPBxAJlRjHxQjJ7GxzjVMokuRI5YDanoEoq+hxaSEyEg56VpqmUdJH15qkbttgfNJJvspHZ7YxHUcZzyI50qls6UG+gi6hH4nQ9xTuhHGUVtCZpStwUXY9sc6k1Qqdjm0RCn3uM9q5JNlY9Fkiqr6UGxHMf1qzSRRxPI49Bzkn3odDxaRZIYtOXwGAwOtJJWgykFWVtbpw9rmTPqYch0B3A+dqpgxWrY2LHz2Y3xrxG5m4W7gqPMkCqSc+lhtXoVXRq6RzsWLTQss0hLMNJflg+39qPBSWyPJpiThL3XDvEHlXIPpEkit0ZcbY+uPzpZx4qxoyt0bB+JtDHiIF5MhS2c7noKSCt2WbpBcd0z2txK+zBVJ65ON/wBa6dHQbexaqifiE2pQU8pQzFc4JCkf570qVhkzzgXHLS6ll4NxKeF386SMROpy2snAHUnltzwCO1PxdaFUknRC58Ppw7hVxYwySzoZDcqX9TMuxKk9SAMj4plPdgliZya4mNtx29AIYCdyGHXf+xrZKOtmeMt6NNwLiDvhdzI50xouctnpjrWWf50aFtGztpWgdnnCQyk6UilkGobf7Rltvjn1pIu9IY8tr21t9ZmmAkY63cKFB+SctjG1Gmyal7GEfFEJMSSE5Odmy5+g2HSmVoaWloaWvGYiyxRbhRgkHIOO3sO/U8qbQqbZO44rL5Wh3GANKxg8ySMUaGuuwGa/kLl0GS8gVRyG3X6Z/M+1BqjrsqsyXn87AeRVAjOnk2Dy7bnPfc/NI1Yewi3stU2jKMzbsxQbj25nnSDb7H1pEAoj0syBskqN3O2w6nbrtj9aNAaoLtNczGVTpIO7sCSfck8umAM0AJ+h1YcOnuX1ISqhclnHccgvX9t964Lb8jROFW1uxlmn0rHuQrHWx7EjG355NcC2fT8fOHt+GQKVAKa5HyARtnY79etFbBSTtgFzc8RuEdTxB4RuSIEAwN+vTl1p1jbYecYrqwZ7JjvLf3LDUUzJJ6c6sc88iR059hR+iXsC+RXSLLeKKJ1C+bJIg/3fn88wD70f9P7YH8hvwMrfiUjWvlo5kiYZEVyPMTTj+YYyM78qP0v2I5p9xE/G/DvD+I2jy8Mt2gvOawK2pXI6oc4I6AZHLuKnbX8hl1o43xieeC5kguD5E8bBd21EdPkf5t2MqrR3IT6ZpGkbO7MSAucZxnG/TPL/ADEnZyvwUWdwlzbwsjFZMo6ZzsQNJA7H+9aOCVk+bkx0t8LfjEc8Zwt0FdGAyA2xZD3IYagfcjqK7iNCVSpnRYbtI7mK6XX9mkcS6bdwDq0+oMDsy4JI5HHxWdu9o09Di64RNoS84VI0ltLuoXPoP+1xzG/KpSVrQyfHTGqyq3CIeKJGGaHaVSMHByPy7j5pE6C9sRXVqZBKkcqRqo9YVdmjb8Ei9iDgFevSjLe0K1XYV4d4Ri6g4hHxGOWDZGi1ZOCQCQOmM5x1FRlYr9M1Ii4XbyMj3d0JVbBKgAg9sBaS0jzMmRR02D8Uj4TeSZee71kY/BsfelcovzRCU4tgLW1ra7xTo/8A1qQTUpSS0nZKX9AUmqRiI1GnPMVFysVY77PXs1AJc5Pv3poyoZa0ReW34fqJCj/ketXi7LKWik3NtfvoOCD0xzpXCxHBSYwit1tIj5YIUn8qT+Doi4uL0JG4o1vxUB1yjEKMdKr/AGVhofTpDcBZ1AVuZA5GnToo5aoDvGKOmAcHbtzpnWh8asttUE7K7LlV2P0qU3+qBlVOy29jWZOf0ppJPok5WhKY1iidVOexqUImOSsWCMiVncZAO1Fa0ikEXagSfmqXEtyQ34ZbsoO/M7n+laG6GlHZeYCJmDEkZ/KsTzO6Ya49BsUyxbKAAN6ar2jQp8VZbq+0voGD8imTZOeXnoi3DIlYsFBkJyTis+XKpS0TviCXSFcqpxvVoKkLythFrNDBEfNxj3NaoJ1ZqxvyyM00bjMR2oS2c5IFtSLi4cOp0pvjtQStpC22ecQ4kkJFtnSoA5Dny/7VrguP5PThHhAy10NSXEDqA+nWjFcq4B5H4/T6VpUdaJyfgx19xKztUXSZBckkCNx6VIJB0k/HXuKolqkRb8sBsrSe6t729uWYysuhAx9Kj8XP3wKSUbVAg7dvwCcLmupbtjP9zFrydf4tXLYVL+KpFncuhzxC6lmguLayiYkKI8A8u5P5iot3I0aiqRCCduEuLy5XK+qEsW2ZCgUj6MAf/FUS9E6aWzV8B4DwyS7hv73hyfaJWGqZh+FtuR5q2cHB+hqU5SQ8YKSto13HOHA38xH80SXKsSCGCv8AeDH/AEnP58qEZO7Hl4Pz54x8NSR+JruVAltYIx+0XLriOPSxXYDdmIAwq7n8yN+KacabMcoNS10FcJa2tklHDknt8jQ9zKwE0oPsDiNf+IPyTWebcmisarYRZwMS8lohBXOHHL88Af8AinQj7F92kwlLS6oyTlizAAnlnbn8VTskzxJXhfy8kq4Gv1E+n3PT435Cg4+hk/Y0teLSRsI1RQxO365Yn9Me1KosZSoY2NwWhDMzYcEAs25zzPydvzpl5C3YyjmXTpbRqxgsvIf8QPjn8daNX2AccNX7ppGA1FSAM8uWo/p+mKVqh4psKjZFUuxXzTnG2++APipND9DPhsBaCMgK8j5BO5CqDkgnsSP22otHD2xtfvNDyKkUbDzNx+HlgjqTy07DG3elFPeI8Subd5oOHusdrHhcyLrkck77ZyBjOPeuGA7zis100cNsDHIfuy/JlHsDnG2Rvv1xTRVnaSthOUtFW2g9MaKQzJgsTjON+QwOeQcE+1a4wpWQcm3ojJewWkTiLQdILO0YIClsnK7b+kZ77kdNmCDpxCFxKRobSpyAwCkc+fxyrjhfc8SZfSjmMlSR5gDYYZ545jYc+9NElJ0y6bj8UMoDv5rI2242J33xy/YE78651YaGfDOP/ayZBLmRxunmEEtqwDp6cs/n71OSUtM7aMp/F3gcF19n47ZQsvnsUnAjAAcDOWxvuOu/LpzrK1WihgeHW+VYsB5YGSOpX35/lQaCuzOW0TQrd2IGma1BKsDg81x+oH51ou0miTVOgl7g3URguE0tJIWiYA41MP0OR+vc0Fp2HTQ58M+JyLYcP4uGYRjUJA2GH/LJ/X3361GcWtovCfJUzpfgzxLGizGLzHtZG0KjMpbYgZI69/zqEnT2aIq0dEgghlt53WNSlwCJo+hbv75/cZ6mpyFaaMVxCFBZQIjlWR5Ldjk6tJUSfowB+ppShR4LuYpWgnDIrSarecAnGtSNLY9xp+tTkmdKPKNI1fE2eOaSV0Hntgtgfi9x9KhN+T53PBqT0Zw3Us02eWoj6Vncr2zKk7pjOezKw6nxz5CpJWU+uidgVQ4+lVxx3srBWDXDtJcEAHA51aVME+9FfFkjuINI5jcexruSijuVA1jYOGjCDUQRvSOT/wCxuaQ9YKtuIycnHM9TTzjSFf6dnlnwa2GqWTDOd8noPapwnKTNkIQUd9i6/nMTlbdSVzgACrtqjLOXFgou2kcK67k7E86gnPWhfu2OrcBbYZ/Djc1R7C5trYHf3KGLTGw1dgelJtaRHnoRvJIr6S3baqU30TX9g9zKY48Dc9fmqqKiX0kHWkKmBSy7nc0xNzNHDCZGzDkgmpSk26NsoEZVdJMOAMn5rK07Mzuytkyx0jYVoi+kdKTqkG2K+UMsBlt80W6DHStn15dCNHIyAOvWpY4JO2DlyEstwZ2HlhivMnvV6KxVEXtJrhR5hIJ5AVZSvRpWtBdvD9n+7GW6k9qNUBRDoLWMOzoTrYY2FNBfpMrGNbZi+J3EE0hF55oZNSCSI7FT0Of36e9bavZq5aoyvG79YWH2K6mVz6g/mYJp4kpvyJIeI2PGctc2uZ1OgurgK+OpFUvZG7YYJPtPD0itY/LtSSxULgk+/wBKFjpAn2OO18yY+uf1FUVtvbJ7D86lON7GTpmw8G2CGwumdS0wljJZh+IEMc/Gr9qjdOi8VezNfxItI77iUdgg/wDSwAQkYO7ZAZs9TnP606k1uIZLSRufB3GOBf6fHY213NIkMQiaC7XW22wGsAftUMsXLZTG1HQ/+yC5aye1vpTDFIXhWXcpqGGjJ/mBGRv0INSjOh65HOf4v288HCkukghUw3DAiT+QHZip/wBxwCepB57VswNSdEMsXFWYXwvDdXrBTA87aSUhXOjYBsseigHJPvzyaedcqIxkai+CW1pgypLNywGAUf8ASO3ajBezn7EN0gdQymQFeqsQSOfSq9dCLYC4VTGx0Yz+HIJbI9+VAUFW6dWbOdJbD6eS91Hz/nOuGsfWUwhQGSTTJgkY2A7kdscgfk74rhkNrJtUiLGgATAIGwDH+UE9hj5wK5hNU+m3g0jGcLq2wDtsB2H9/eplFpFttmT/AGu2C3QjURz+hOPgUsvYw9jjFtBGAgLYG3buT2P+dqVAehja5SKFVchCxJyfxN745gDkB254ptAM7e3xaWWEBmyM6QdC8iflv6gVzVnC7gt/G15cGPSWVwEWPAD7ZLbDY7EdT7mq4kTyPwPpLvy4FMRMjBAWXGwznPxyG/TIq3JArdnN/HHiXiPCnWe3BEkhIPMhRg/O2CdvfY7mh/J0F6E3g/xXc8Wu7qGZ01gj0nfK8zp/myTz35V0o8diKSZtLjiDNpj8wtId2YDAzjADNntgDA/vQU2c07Of+M+I3c3iG1srWUo4RXZw3qZs4AJ+B9ds707aUeQYK2bjwobq34eluyklguXZBgfTO/8Am1Qi3dlXFdG3AXivhPitnKqSR+Ws6YOQhzgEbEZxn60J7YiVI5/w1G0tGdDNgrktvy69j7UoUvJjOJhovEhjx93MqZcEgAEEfnkA/lVIbj/6Jk/kVtOjWCKMiT8JC+x3AHcbkfSuOVF3C7cTxL5kuH5Asy9uhPzSyYTV+ErW84dxCO1m0hHYNGSww+PxDGdmxyHWseWNOzTib0jvjS+XbTrv6WLAgd27e2ajHZWTVo5pxXiZ+3SumlYixOSDlpCMLy5noaavQV3QV4RhSyktUkYtFJlZFbPL0jPzyz7Edqm7Q3/Z0mKGC+4fKZlcPC+klfxKc4bnsehx70nGzF8jHGTtis8KS3vI2l0lXJKsv4X9x/Ud6zSxeTyXiakrKOOyhAiRsAM52qbjTBmaj0LLYsjY32qqaS2JjbbQVKY0TUwy1djq3ZaVVbFhfzWcqRjO9UaRG02NuGfcJ6+be/Kkiq7BZFog1xrzhf0rpu+g8lEqubuRCFjJK9gaSKp6BGTk6F5uCko1gttTzlSs6apHyRpPIHzgqOdLFqQkWHXF0YbZlwcAcxQg7ZWW0II5H81yTliM0sf5v/snCO9lE12ru3TGMVdNE56KUjkuJ1YDIHPFdybD2NNcqelYzj4rrYDXWsgtgVHID9abRueSvJbZabiZnkQenOM96SMVJ7Jqm9nl0iKcoBqxk10lT0c0itTqXK526Yo17Eps8isRcnEq4Gc0FtgcVEMlhtYFLYGvGAMUzdGiK0LIrr/1AUD4NCM97OUw6XyWT0jPc96vzSLrLFdgjyrBC8pOkLyzT43ydlMclN6OceJZLZrmSSOfyyx1HOcVtUtF3FpHNPEN4fRbwyE6nOW07Y9qqvZCbfgu8N2LG3mjICOMjYe3Wg3sCVGgMXkeH401HDJljnJP+e1GOxvFgs6i3gtonxrKAnHLln9zTVaoZf2bLwVxL/0+m4ePWPu222wCCNR/LesU7Tui+PZHinCGjk1y5fLnD7sNzqBBHfl8iujJeSsoXtGQ4TBdW0gv5ibWNbiQZc6SEOCpxzOTnAG/LajOaSpE+Lo7n4WPD/EHDppbWTRfgMjKw2U40jUMZyNjn9KyKNdlHNxeuhHxzg0/H4uI8LvLSSGZ7GAs0i5VZ1BXIYcyGAz3Bqym4STG1KJz/wAR+HeM+DuFxcPg4dKtjIuq5vymTcknP8uQqAnAjzyAJya0c1N8jGko6ZmxM0yuqYcJzdRsD2z1q0ZaA0SZGVCXfBO2MglcfmBTgSF9zEsokOGUHck4yfcD+9cGkL/s7I8bMuQAWByMD8tsf+edcLQXZeY0hycyBtZY45kYG3sOnzXLQUbDgkBjVXd/Sg5b46FmPUn/ADrSSdjpWNPOQzICTljrLddWNtuwG59zQHGXDXVyzsWbSfVpGwGNh9d/1pJHBssrTlNWrD6Sw68twP8A/b8qCGC14rGsk+NCkZ3OMLuSTn64yNt8U9WJyAb6AzxlkjDKmrVlghPVmJOc9t9htz5UEEUWs6W91dGbTqKqFZsknck/ng7dqdOhZJMvbiZYAt6hgjWpBD6gARvt0+adA6ZgP4k8UtZ+HrZwsr3TMrsoYkoBvv2J7fNPDX6BJ2uhT4E8NT21+0tyHidrcyYkGkHJUqMHlnuaE5uWqOUEl/ZrppnWaGIgksckKRnBPVsH+3alAZ7xjwC9n4kvFOHxam8tB6M5Uj09efQf+aotqmKtbQ08L3vG0T7LNwq5BI9TRFdxnpnkPfekaS0iqerOn+FZvLjnW6RFRohG6rvp35A8gQce1Rnd0FJeTHzW72XGLm0kDyAFt2PTpjsN/fFdYqdGKvUWTjLyAhh9nkDAjtv9TjVTw9InPbsqubQXAUrusgWTOBuxH9dzRboMVY+4DwJDKttcIsiyKQu2M+3/AGqUm3sqkhjoc2jx2xYRxSLPanfUpTOpQfjfFRyvTK49NM6uOK/avD9tc6irtpEhQZw+Nj8H+hrLiZaatmA8S8O8y2trxJpYmtbj7Qyx5IAZhuR1AH5A1dfxYknTVD2Xg9xJczzW8rKI1WQouBggJll+NPLqBjaoyKVT2dD4HMx4dMzj7xmRGK8iQd/0pdolkSkwRpGF9cWEz6bWQjyXx/7Uv/8AyeR+c0jVumeRk1JxM7xE3P2xVlRtjgjtg8qi40Z5r2HgAQ+ob7YNGk2tBxq2L7nLMQTtmuUNjTj4ZC2tlz6CwC8+1VcaXZFpRC3LAKpPzUZdkm92DyXRQhRuScYrmqOW2WyTrFFqc5b9TU3Ohr4dCjWZp9Tfgx+dB/pbGlJOOxlaWjFzKDgY5UiVdCRaQY4SWNozzxg4q8I2tAlkFBtmEmhd8jpSqNMqpWim/wCDyQ/eMNIPPanrQJpLsrgf7KmAoH+cqN10TuhnBcRyRhj1rrXoNr0ObNHkdg5/pRS0a1jt7GOFhjxjJPSlvimI40z4MqxAOR5jbn2p462x0vYVaeWI/Xjc75HKn16GuKBby7RHKxHpsKldMzZJbtADRSSnJzp65NO1fZSE0wOZ/JlwBjFZ5z46JZJcQ+3B0BnGQeVGLbVsRZG+yHE7b7XZTRxtoYrkHH6GtGDJU+Jq+NmcZnG/EtwIrny5EeV84/EdIPzW+Lo9eUtCFOHuY2nuVHrOQvbY7AflV072Qatmg4HZlLS+cqfUAFyepGDRBHsjxsaLW1h1AAqSSNtlxk00Q9CjjaytcQS5OgwDSMct669nNWiFnG13HBdwO8ciSgalOCMZDftSzVo6HZsGur62URzzF2CASKp0nJ6jpmsk4paRrjPVCdpHh4RxF2la8fHmRtIcEFclRtsDkdOX1rqV1QbtOzoP8OrK54Jw/hnE7dfO8+2D3MY2yzDV9CDt/wCajlew4484b7HHibxHapw7i/FoRHA8CeXI7D1uy4wvxlhuP1pYxeSSSY3FRi0cT4L/ABc8U8A41Oltf+fw+WTUltcjUig7Eb7jcH4wa9eOJRgkjzpNSdjXxB404Z4nkVzwe3t707s9vsB+Wx+OfelSoZKhUZNB1I0AQgFGGCSPbtv9aLdDIEcaxuNfM6n6/AP9dqS32ceacTJGWAZj6nLA499vywP0rkwDCztwrhYdLEdSef8Am9NyCNUcCIFfWrbAltz1Jx25UpRKj6F/MEfPDrrZ8bHsfyGfy70GMMTceSFCgCQ4BB20awcfpv8AWpsUvtpcoxw4iJ/CebdB+YA/U0V2ME21sI5o/NKFxjljGeYBHQdfgVQm0fcQPmswdlK/hOBnLDbl9ex5981wV0Kr1Y9Po3Y42GWLszAL+eCPgbc80a8nNid7Lg14fM4patlipGmQ4OQDvp23yeXLIpkxasecJ4RwF4FNhaQIQx1HHMjpg79R+eTVElIRtpg/H5Dwq4mcRsplcv5r/wA4O+P3GOw5cqXL+B4vl2Z6/vJf9RtQsoEUsWSTtnBBwR23pOWgM1fhyZ3uI48sYbc65W2y2eQ/PB+nLeqQfsR66LvE3GmtxHHaDTNPJpwOZ5/15n3qmSfGOhoLYbwGV4o5DLqW4OMsnPG2CT3G4xWNb2yzpgPjBUF4Lpx5ZeLmdhkdM0EI0c2lbXdX02fWE9KjbdlI2+nWqw10SkH2dmJHYxMWXGBg8/8AMUk3tlIG14aITawXqk60YBiNgHBx+/65pL1RWvJo4rCN4p2AWNZm8xGGwWUEcvnODUZNdjpeEX8PeNeHtbBmUl8FcaSvcY/Ij61ncePRRysD4MXN5dW17IjSCRlKh1IZv/6xg4zy+h+laZLRHG+XY+4APL4n944aORyqseajH4SOhGCP1rO7su35NHwYGGK8hc4KToy/BIGa6RL/ACR4zZsbkTZ6DAqTR5vyIccll8Ua3UX3qrrx6j1yNs0JNEZpMQcfhljGIeSnpSN0ST47FVks0pxcbDv1p1JBlkTQwby41AQ5PTtSuaZmk22R8liMtucGupMdRtUL5ISLgZA3Gc560k9A4NMsmhBZF17Z39qy5HsD20SmtoYlUqN87VSWkdOqLYXcRYXPXJHajBWSSZTHnBycNWvHBI5r0DwXxiv2DYwpzUskXaUToyZq3li4hw5tIGoDFN2jRJWjJ3lrg5yCQetdx8k+FkUSWNdKhsVSMI10L1o06XSa1c7A8s8zXS/KPYyOk2gmWUSYIO9ZG7keW8ly0I7q5me/SNM+Wpz8087nSLSlaNBbq0kaq5I2ztVpSXQqi2hPxb/090rsQATj+1I6shONBnC7nkJF9J5E9qWU+LFhJplfEYkmmzDgEnGwrNkuXRTLUtDeC302w8zGQMGq4l/t0KoUgN2GHRCFYggEjODXY2oyvyPGSTOD+KJzPxscPlSWGZ5fLkwQcHPvuB165r1oTT2ey5JxXEbTWyX3DGJYoHc7jfk3PPStEXqw96D4z9pkht41wo2wOeOrH360x1JKjPeN5ykspQ4yrQRAcs8yae7OkqQJwORuI8FtgH16E0DI3xkgH9P2oTVJMSDvQ38P2yWP2aO6OkXN7oTbodv3NK+qHSpl3iZkaeZl/FrYsoJJDDYAfv8AWs8uzR0CcEtVm4FKo9SxlZdv9qyEEfGM10luwY02htHxyTwvwphd3UpttYWCFQdSpnltz9uwHxUJReSXFFV+FZq+OQ/6/wCAnu7JPtUmEeMRLqMqk404HPGx9xkdKWH5lxfgWUrOGcW8B+MLK4nuE4Lxd7EMWUx2cnqGBzULjn/2zXqwzRlFezz23yFvDrhzIYo//TyLuVdcOxGdWBjb35cqDSZVDqG4ja3VdQd22JclzsefYH+1LJs6LvstE7McvMkaA6VRBkD6dT7DalTsIzsbcCNmOgyNggM3seZ5k13RyVjABYQE2ViN9RwQB17++KJRKiBJedI15KuQOvYn9efsaF+BZElAkmMarlQVXvtjJ59M/sKD6GR8XaeciNsySapWON9jz/sKlIboe2EZWJYzpwuMk75Y9M9cDOw7+9NGziRuDGgTIUZ2IAGee+fgc/jtVRK7Ag7ysxTlkMQrYBBycMx5e5Pvjc1whBF5HJ0rnOARvjGcfGdux3plTOFdxguPUroQ4KqusLzBx+22OW3IUr2x1pA1rczcMuAsGtiThkdcKPSNxz7+2PyoxlQGrWwi74jNxSMCOwnnkjOnIwq79Cc/H1ppT5KhVGmgG4aMT8KSSOWONPNSVSullbSD232B2rk0o7GcbYVHc3trbObO0SKAsXAeX7wqep588Dnvyo8q2gLGvIRZtLe3kdxMI3cYCsgJTcHACkbg9z1AFTbcuxkkam0iZUR4yEjRAzLg6dJxpYb5K9MdOWKZK9idEfEqebweV4S0bquM9j1APfY7nt9aju9FDnPh3XecTdZCJI2Kosi5GtdJYnb2AHffGdqv0iL3Kh94ftl8y/gfmkyoDo041Qg5HfcH8qSTporBdmq8PJqFxG0W0sfm6Rt6h6Wxj6Goy7tFY9Gss57e4tY4LhUe0ZcFsYcN3z0/vzqco+Bk6dlnF+ExfZtUDCQGPS3cfPbIP5g4qcbsM23o5PxNp+DcRuBcrpLhZEdiB52CABqAHqAO3fH0rSuiKbWzReHvFQvriOFnMlxldLkaWY8wG9/es2VJbNEZWjqsMvmoLqJSRPCV0jmGUhtOemCGGP8AkKRU1Qkux28cd3w9JVYvGVzqG5x0bH70hmzx5qmJZ/Ntn+7yyEY1Coz5I8rJjnj62gaVvMTXJzxjeg8aasg5tmdvDI7ssB3Xes7TuiLbsq4fFK0wEjZbniqcR4j94wtuuoZGDnpVLpG2KqNi6WJZXURjfGTiub5MlXJ6KLm3kgIDEkHfIoSx+yLg0EX9mTbCSPOogE43pc2OoqgOS0iA+4t1zuNv1psUaSOryCyEoxOavexL2JGlDXTt+9BumF6Wgvw/xS4hu5o2VjGeTUIvdHRk0g27cyT6s4XOcf1oPZynRZ5vYbUOdaO5lxkWVQFPI5LUmSVo1yy2i6G40Pzyf3qUezJJq7DIQokEjAaudNPIlVDJ3QYtwB6lPtSwncrZqxfpWiFzBHdJllzIOlaOx5YotUwPQVGFJ+O1Sm3xozcEF28ern2/Ko7seMF0MPtGbdiMgZxVYbGm1QhuXkcuYxuP1oSju0ReLkYfxVw+Nr4cUES/aVXQ7dfY/PT61bBkdpGv4mW/9tmcubvyrGGNGIUgs2Ccnc7V6Cnuj00qQy4HOIuHT3QOJMaB9RkftVloSPZkPFEjXV5bwR7H0qpPRi25/WrQYsnYfwSNLfi0cEAAhaB9IPXSQQf3p5qlYsXsZcTJPFODoVBhCFt+hBJB/MAfnUovVspNdDS74rb27Stf20cscigyaU9TH555z+VZ5RptlYy1s9gvbG1iduHWtx5qKxxK2SAdyBnn151KVtbKw43ornt/9YuTbxxGVGiEscp3DAkek+++fj4pOdLQZR5dmg8McU4l4a4Dwvh1gigAPEzopPlsCzb/ADyHvStcpcmFRSXEyHjb+Ifi+y4spi4nLHAr+WwRCDyyN+WTg425it/xoRkql2ZMy4vRl7zxJH4yRjxMRQeIY4y0V7pCrcqoOVlI3DAA4OTjPY4rT9fD+PRJSETX8sbmIsyaTgx9VHYZ5d6TjasLdDbhUwlumlK6hGmEXVnfb86lKoqh472O7ScRjWHV3AJZyN2bkQPz/T2oKQ9FBnZ2Jc7bABmO5PUn9fiim2c3RdaXLP5jlAEJyM7cuXvzx8bda5gTvs9tpCJFDOzMZASqHGMchnbAGf0NLJ12FOx7wi382CS5dcySZOFHpKg4yBjbP5bZoNJoYNu9KoimTQI11OUP82dxk8u3wPnLxROTsi8kOTI741YACrn3zk4xsKYDdgZkUrFbErqY63XGQNJyEydgBtv/AMdsYJpogPA33YgjHo8sM5OR/Lk5Pv1/LPOi34QEXiHWNUPmB8KzsFxpAyTgfAc/Qk42opUEXPaMzPN5EJuNQKK7bHdCARzHPl0VTyxvz2cFWFurQlYrcKwICBz6T+PSAAPxEtnfuCe9dHYejzi9o1vxSzAkjdd8KoGWBChWwRuDuMg4BBG2QS0o0rAns8mtzDLmSYIGdc6W9JVsMjYPTIGR1BHakUaH5egm3sVgYrAqOGUalHo9J5Y7YONu3LvRpJCN2GxXSzwAIS0rgqwlAbWMbY7N0Yddj2JEugf5JySLNaTQh18uZWVTq3U6cggkdCuOWfbaszpMqqaMj4OtoYnDeRLE8aNI6sEIBfB/lOCCNwV2IJ7VryPdIhD2Hrd2xvL14pG1Aws7aOW7f8u3+GpTqqZWA+t7gWl1aXLf+0JhE+wwFcc9veoNpllfkOuftNjxVrVHIikI09FZTyJI6Z29jscbZSUr2gxj4ZpuBytw/VBxFHa1K5ffcKMete5XI1Dngg7jNR4+UPJ6IeKvDEN1aIuFminVgIpOTYJGMjccvpkUY2TfbRyuLg0vBvFFmSAI3LfeKNJO/wDN0yNvmhkdqiuJbs69wLia2yMlwAP/ALjEHYkbFh2I/UVMaaTHZv7jhCNcWMX2/h+TIY4jlwh56e+M5x8inVLZnktVIJEdnxlBc8Ju2gLjLRS5QH8xsfaklDlXFmHPhnDSfYo4vZXdpCUniZDvhv5W+DyNI4yj/JHlvHJdozlqrxg5JbJxtviouG7DwQxhtDChlkOGIxjNPGNbFaopkuJJFKn8OCuT/aoNu6ZbHJvQHaXv2ac+dkZ2zVoumXhodwvFxBCwP0z+tM3SITl7PJNYjMZGTQ5MzPtC+5t5WBP8uAN6PMZvRJrZGtWZmOoDfemhK2xY9GVSAtcyFGLHONqZpdh4+TT8HsEWAaxv+5poKlYrVsq4nZyAM6bgCi0poR2hBHdOFw+FYHGK85qfo4bwZ/CrYBOaeTdFpsuEb6h6Sd+lKhIxcmHBGVQX2x0ppwpJmh4qVhOvKBVPOu49UHHKtE41ZATnn1q0ItaLW1sHa4CyFVwc9aDjQkvyX280h2CkKeZqCkGG9jIgR2mW5k8qvGNLZPJLjsSGQL5rMAQTtvUFNp7FjksB4gkV3azxYGWQj3B6VTHJN2Pi/M0zl3HIjGyqDq0pjb2Fb4Kz3H/EqN2sXCUjGE06ScDpjGf0q7elXsSGzIy32eLQyufQ+HJ/6gAf3rYlpsjLZs/Cg8/i1zJqGm2t8fGo4/ZTST6OgrkkMXIuIoCrL9otWYlOZ0udS7UI9FpR2V8WiEwDAghgNh0H+f1qUlbHVE+DvruYVcEnGhgehAzn9TSTjZ0exrwGF7S0aRNQkhZ7J+wZSdBPsQFAPcY6isr0zSlZGw4u68RltpdXnK3nrGDghW5gH2IPXrTVyVo66dDy9s+HeI+HZu0fzIuU2AJoCMEHUNjjAOHBU43xzBxzljdizx80cD8XcI4j4N8Qm1uJIm8xfNtruOFQs0TZAZcg4P4gRnIIIyRgn14yU43E82dxdSB4eLGeVIxnQiAGTrgDlQ4NbOvdDLh9wBqUllV/QD2J/r+lZ8sb6LRdMZ/aWeERph9KF8E4Ynlv7AnPzUUmhy3zkRPKDl5WUoSo2UH+/wDTFViLJlNxdKztHH/7K4AGMasftn9BRbrsUItA0k6+pTjcE8hk8zn86jJ2VSN7w1hBwbz4AGdgugtgasbc/wAv7U0EBugK4UmVTMykhgZAOTHHTO/wKqTBLmQMYtAUsCCigY07gAEjmWIOSemcV1nAVxMzSMo0FUHlqf8AcxwN/wAjt8Z54rq1o4KDSSWKEODJLIdHInVn9eY9hqp49ACbW8un1T22ViUEKv8AOxwAoz84OOp260y70DT2MbC3iikjiWYho28uRlHpIUKCRjnkiQfAYjpR4s5v0VeqW4d4lc3AVir/AMuFUF+X/wAhtz0nHKjGJzarZDil3bh1W4VVigeFlU/iixgSod8Nup7Zwp71Z9URVX2KbKP0+TO2WgVNLE//AG3f0j/46lz87dazNboupodpDE5jkSTTcKoVon2J0tum3MDII64OByplHdAb1ooN6jzpIik5QsrHGteY0tgb4OMHGQNum6T60ckzxJ5IWAikI0qx9Q5ELqH69/zrO6bHXQv8Lw+XwRRJq0XMrRoo2MemMu+nPL1DOM4+DvTpthiqiCLai2vonUhra8TT5iDbzMErnsTk7HffbPOumgwNVwSaOe1aGRVlGnQ0RP4hnY/I/tWWVmqPRrbR4f8ATwrq9ysZ2BYeYux5E8/gjf2O9ImumGcXWh1ZtaXVmVhkRlUaWjkGlhkEDZu4LDmedduLJyba6A+HXEs/g68tyCLvhUkxUNzGkGRPoV8xP/jVePRDk4uzNccmtuJcLS/hwZrZw7KgBJHVsdeXztSypmuqegzht7b3SwsMMDgNg5Aztn4I2/KoPRXsa8AuntJZOHXTthDs3XB5OPpzoWqJuNoOsrIW9xdmMvCs2CYiSQD3X/idiP75pX2ef8tNwC4L66t4zEJmkQjBikGtD/8AE0HknFV2eUskl5LksILhTcRQiGfSS1uN1f3Tr/8AE0Y/tJ9Ctp7Qju5mlc6mwg+gFTndkttn0U1vIAEyd6k66DF8WDX9rHLKBpBzvkdatBK7ZaGRNlZX/TNDQltLH1CnzwUY6BmVUO7NluIAx2as8XujNKLQXFYGUN0H71doMYOQBd2awq4GOu1dcY7seCp0LLKxBYsfSP3pPvi3RVtUMDJHbrhyfoKtGceO2TlDzHYVFJBPEQT05mqY3G+xHB9gFxwa2llLqY8Gq/WvX/0TiKLW0cp6zpHtXk0zTH48pP8AobWs0NvGdYUKoxv3qkIpbNChHGRF2lw7KoGB1FVuMlTH0z23I1nJA686WkujPKKi7R5cyOXAU7DqO9dyJyyNnkECli7b7c6V2wc9BkdyhkCr/KKlCNsP2VpA/FL10AUE5zzNXk6VEXchUZfMTLZHYAYqHDkzRjw2rKYGVWYKc0HDhtME04SMJ4ugaC9k1rlCc79Qa3Y52kexhnzxoxnF5ZHt5EjGQ2CfiteN2xtpGQnuGMr4YssSaA2fxYPP/vXoVSM3nR0LwPdEcE8Qyg5kIiA33wUf9M1DI+jRh/kQ4teTWPF47y3AeIwhZEIyroFAwfjB+tCPQ8+x2lwbmwS7t9RjIyudyvt+v5H2pZd0NHYVwfSvE7YqTomIdP8AqBwR8YNTlYV0abhV+lnx66hZQ8c8Qn0/7xyfHwcH6Z6VnmrLp00Zr+I3CbmPiNtxLh6GSxkT0zqu6nOdJI3VhvsdjsRk5FHFJKNMXJF3aAvD/H7zHmCZoryHK+bEdJYDGzfoQce+OldNVtHRlehhfXtn4p4Vf8N8V8GF1Lwy3a/s5+HSfZZZosqspUepAw2JXGk6c4Fasb4VOD7MuX9rjI5dJwngV26v4Z4zKJGPpsuLRrBKT2SVSYnPzoNbuT8r/wAM64+AMtOkhtTHNHOrFGiZSGDjmpU49WehqUqQ9s0CQ/Y4FMhBc7ufYch/n61Linsa9CsX6pIOTqh2HRhz9+v5/TFOo6EstkupHdypUOQDkbZO22f6UjXsotjvhDNn7VI7AElVwd3I5hfcb5bkO+2KhLWiiujdy3P2bh/Do4goZEMiBctgjIA3/wAJ7Cnj6AxNPeytblyhdkOlNZHqJ5AH32/fqKqlboQAmupWsJGKHzd8FCQoIGOY7Bufv81yS8gApZjbr5OoOwJVCANsbZI7bfkK6zl0XQTytfBl8wDATUWwT1wOw2JP1o8gIa216VtzAyPql0szLzAJ3wemwCjHI5NNfkH9jZbuCyt7lC4SZXVS5OAF0rkjrzkYY+O1VSoW/BjOP+MRYxSJbgeasS6BuByBAI5YKllPWqpULKzBXvG+IX0klyszIu2lGOoFVzpz3OMDPM4FHRMbcE8ZXCvbrdamkVtOrOfQFGB7sTuf+9JKKW0NCV6OgJxyGby5TpkeQZDttkEAkfnyP9hWeUqZdK0ERXIu51DhRLExXcAqVI5/B2yPfod6zyyX0FA8l4YLRpdOPSUjjPMtkKoP1O57CoblKkN0mMOF3CrwHhE64UWt3MrdcBgQD+TJ/gq0nV0PDdCtru3bxfccPiBEdvafZiGH/uAsNRKnmARtmqX+U/YP+bR5a+IG4RfrDxS0diG8stE+TnPMZ5gjoTnfmdjU8kFJ6KRm4qmbPgXFV4lMDbM+MalyNpFxnGPjf2IxWLJ+Wa10Hv8Ab7G7JEoEUbFtb5PoP8h/znj6LKTdULGNdhtqk1tccau7aTVbX/C7hZlz/wDcWJmjbP0Yf/L3NacMtqMzLnxtRbRzPwBxd7nQVbGVBIztnAz9Cf3qedOE6RaDco2P7S2az4tJDasRauToUndAd9PwM/pSzVFMb9m24jDJe2UE1rpF3HCshHUqNmx/07n4zUfAJvjsZW3ECzQ287AyRKAXA6E7fny/KhdGSbWXG2h2hjifMgyTtimnOK/keFJ8eynivEVgGoHSQRg8sHpUnPeiKlcjK8ZuxczRPEpVbmMvhRsrAlWHxlTj2Ip+PJWalG9keHq8RywySNqRwoeWNNWMIp0mYLgBgdqlGdaZjlcHoq4khcDfrVJZG1XY/LkyNjdSQkLscb/NTnFpKSK5IXDRsOGzj7CJX65NFZHWxsEKjbEN7dLJIwQkjJFd8haqzIntsjDKFwM4NYoS9sMpWXSWy3KkZ+lUacmOp0KeKh7S2fRqGBsB2FPie9l1NT0zFtx69RmXzjsa0/Y/YPqR0KyjURBcHOMb9aWb4ujS5cdgnE7XGAudXOnXRGTcg7hPDFjtw0hAcnJBpYRtWcoteSi8hMRLx99/ihNNVTI5G7oWm5LS4J36U0KrZBpoKMrJDhdieQpXL0jrL+FQsNcsg9K8hzyaaCrspghzk7IzWdxdzomnG+SKZKyjxPl+QjifDHFjpTSMD8XXNX1wrya4Q4ozVjYyxXeqQkqOe9QnjdWQyxXllnijgycWtAIgBcqPR7+1TU+L0d8X5TxS4y6OPcX4dNAJbaQEE5Ug9N9/yrdimevakk0YuLh7szIF5FgB7Yr1ZZPRnrbRsvBy/ZriaKRWENzaqGYDcFTkfoTU5PkUi+MhybCV4jFkXCKNvLI1jc59Jxz2278udTX5LNX0FcDVeGcNFvMjxgHK+Z+I7noOVLN+Q44MtmkEA4fPGNSw3AYaRj0k8vnGRXBkqQ54zaztNBLZu0d1Exe1kGwkBGTHnkD/ADAHmGIqEuyj6CvCniu3xLb3CSLKDiWIx6lPcMhwRjtzHY1OcK2mFTvTC73w7wm/uWl4HdxRTTje0lJ3bB/Axx/+JFKpOqYeNbQs4RClh4j4nDNGQtjY3cjZHJTDpIHyzqMe47DGjFeomfMj87zF48o+jlh8KCGGNmBHMEV7HHdmBNWazhczT8Ns+ITkyXkZNoWO7MAMxk9SdOVz2QVkyLf9F49AvGOIKY9JYMdzkNkbf5t7U0IiTn4Qo4ZqnulDesk/g+tO3SJpuzT2doML5qRS5z5aRtkEDmzMDsvTYgsRgHmag9M0R6GtsGuJ7cSMPLc5cadwg3wFGANhyGwGANhWebtlV0aGzlJGJMM65lAY7Hqw/Mn5rotpnSRWbmPynEWdZYqpc4yxxklv5emcb/FOpMmL4pI47dTM6xLIpZGdSA4GdRzyH/T2Aprs4ovrd4TiOMyazkMMOeQx9Dk/rttQjLezq9Fl041xyvJuNIEf4eY1MCe2SF+oo3TBQNDxKTWjAgALq1MN1I3yO3MfSmTfgIm8Qcblv0+5Ypkeojrv1PfYfTFaYX5JPQgezkmXU6sXAAJO4I/tVG6OqyqazeFM6WC9jv8AlRsEoatCJQUJwdwdj1FMSSo6Z4bV5uE2huBpkcBlyMYU75G3XasOf+TNONNxHVt5ol0qQOb53OkDcb9sdPb4rFOVdFlH2AfxEkaFrKzgO8QEsg5YOpgM9MbZqnxY9ykJkKk4rLw62ltcnFz9/EWGdTqoHL43xz2qzhysEZcToHh0cO8S8F13EKRcTgXTBPnB/DlUZu2+nJ6ZB5A1kknjnXg1JqceS8A/E/D7cTtNV0pW4Eyphl0sr6dQz25EY5HNNGbUgOKcUOv4Z2wiuEtJoMzW7FkZRkeXz3+oP51myvbZaDb7NXx+GNJ545YZJbQKBIUOHjA2Djvg478q5aY3aF/Ao2t0Fstys8LKTbXMeysvY/7SNtuXbYUWc0pKqM3beG4uFcanlt4PJhnZX8tQdMbk4KgcgMkEDpkjlimcubt+CaXFNIa8FgD3dy0h9MchA26bgUJPVDxHtjdx3WgpI0DwPmORBkxnPUfzKRz+TU2taA48kNrrh0ETXU6gAXaHAByAcDGD25Y60rits83NPhxggmORpltyy7hV1H3rPO5NHm/Ir7Ggfj3CppvWF1RDdvYU8UvIuLBK+T2hb9nVYbWAZ1orMARy1tnH5AH61oTSRXmo6JW1tm5KucDmD3qEpPohL5G/yfXNiI71SMDbYCs04/qgyipdBx4TI6CRZA3ZSN6twa2JHG49ifybmO6wsDaO56VzyeKNULobX92UsjGDp1ADNTaUk0hZzrQA1u0VuJdWcAVKVqKRmnDjGwZNUk4c5xtvU1jrdk4sa2V5FHLiR+fLrWjHDdsKdhF/HFeRlDzPWncvATPPwSwiYqyoTzJYDNNGMaOGQn86QlN1HLA2ppRTZvmymMySXWlgdJPPY7U1+BE2NLqcLBpTku21W0olW0kASSF4iMjOKhJ+DHPbAorZElLH1GhFexmlWxrw60+0nXpUKnU10V4IqPJlUl39nuzGoAQHbbmaerZqxY+ErQdb3LLOG5DG/WnUaHboYzyefCAQBkZBNHkh/s1QoktIg8rFsnGSAetZpuSbdkJRc3sp4XAJppXfGhAAB3qV7o7HhVts53/EezgS/aYaQcan364xWzDFs9TArjXowKWq2tsZ5AFkkzgfNesujmVX1yLOKbyT60iVNtu2aNrQrXkq4LxS4msJHEvrikAy2SNJ5f2rsqqqGxzbbQ4We5laSGN0LxIWfUq4JHMD86hI0wbYz4LP/q/DLzhblFvlj81MDYkHb+gOO/zXSXFcgpuX5Y5seJlLBVuLZ7uz04lRB609wPYgjoRmot7tDqNKmGWnDbbjN6l5wu4TicMZOQCou7fOPQwOCw57EZ6DHMiTcfAFHymOY7GJI7mckNBFF5rYGGV1kQYK8w25FTu2UcqRirzxTNdR3VrxEMyXOrDDHmRoGJEeT+JQ2+Cei8q0waTtGWe2cW4taf6fci3Mkc9rjMTpkAKeozuPdTyPvvXqQnzVmGUeJoeHPD/oCwxurFrpX9JAIVY3H0JySfmpSW9lLM/xF/Md9IwOgztTolJ2QsImMisQCoOog5Ib2/pQk6DGzWRzySMrsmHkZdTbAt0UYA5AYAGNqzy2y8ehhYTqsjhHYyMrHBUaeRxj6d6i1ZW90E/aNlVR6VGVA2UjHQDbP96Vdgkz6ZRMnlEkrCASAueuT8b0eQgWLaA2sDeaspdSgiYthcZdee/Ykd+Z7hT2PxRTb3TRPJO7lwI1mU6QC2ggAY99JPXp0FFytncUV3MM00DrJ6ZlJiRtJxld+Xcc/rQthUUyYtJfs5jYYdWKLkbqo5fPXFacMbbbFlpChOFfZroIR6ZcsoxyPUfr+tarZPjsYpwpyg8qIOegG1AILfcOkhGrQ8QPSRfRn+lcwmB41a+RduFXSHOdI3x3+adPRGca2jsH8N/BHGb3+Hd14iigiSwtI5WUyuVeUIDrdBjBC4I3IyVIHKs+TFObtDrKo1HyfcLkAuUAQeUUdpZHP4SukdemNzntXm5GqryXQplgXidxdcQvGxGJQIozuSWGw/UGtEfykhexP4pcRyTWkOZLgKfMnLfhJAyFP0rViXkhkL/AvGrrhnESYV8y3LKrIdtXLBG/Pfl2qfyMakr8lME+OvB0ebxFb297AwDz8I4iNKCMfewSrktH8AjUoPdx1rEk0r9GtSTaXg1vgK94bwy0uozxFLqS4m8wMysjgY2VlbcY9s1Ge3stFa0W33GLbghS5juI7lHkQmNlJDxkMJTqPfnt/t711XsWStUJ+JWw4N4hW4sZTJwm8wyg8mD5Ge2R1+D3pMipJobDJt8ZDfjKseEQXjBi5udDMx6pq3+u1NC92DJppCm1u0tUdyD94+AAc7nrRe20ddHltqgYTW06MpY6WU6dXsRyzyoNUNVo1PDL6Q2EcbqpDTHSCeQK9O2+f1qTqrM2bGp6Y6tjiBSAMYGn3qR4HydZGg21uZZQ4Mew2BbrTpUa/jv/AGxWlkZL6ZyoGo5B796KdujFLG3JlU1t5dyGUH8WMilkkwSwpE3jWTyy5IYdaWVSdj41Tobx2726xkEt3+aZ30blBJ0yPE54comwfOxozgnQMmujNcQg1zoHbKZ26Vnaps8/PJ8wmRFNt5bHC1DJNpiyakKL5hDbsIxyGQB3poyjNVYlLoVwGWcB21ZznFWVqIEmpaH1nMyRq0pwfmlm/IxXK2ty2aXmGguyVEiJQD47Vqk90a530VmdI5CTuaeFFI0kfNcxlc+k43zVHVbFySVC8XJklYLyOSBUnJIyWmwxEYelc6+Rpb2NuthcV19kt3izvy+atFWCH5dCmVne51tq05BFTlJwLfYltjaScQ2+rnjcnkBXPJoWUuRM3xltyQST0+NqDdIGkCRMZBINWS5wAOlSScjodja3RbS0cgg45n3powa2aVUNM4p/EG9B8QOhUkIofGdi1bMJvwyuCOf33FZp+IoYh6IyWbB2FejFWhW9l3Cs8QivtW7bb88bEAfPOmnGqYqd2hv4Qso7e1JlwDcPqjHuNgfq2R9KnklbRXHF3YZw+aCxlu7q8Um3jzC4wNzzY+5zgdsZpHHwV/8A2L+GcPtrviKcS4JxNRcK2UguPumH/HJ9L7Z60ZNpV7Co8naNCfPuLiU2qyWHGYTrls3Ayw6uinZ0PIqN+3IGsr/PZo7FI8WWfC+NoOKcGW2uZRvdWr6NQz+LBG4z756nrTRwvJFuLslPIsbSo3XBvG/Dbi4SO4vA0VyuiKa5t1KnG+kzKx/J1qUoOLqQeXJWgTxBYcNnGu1ThOpvUmqLyj8h02PyPyrRCPkhJnD/ABnaXOtsW8yjVhkUCRQP9wZf1yAa2YY0Z8rtCTh0zxoELEKvMMv9Pyqr7/snHova28wNhSGBK7dT3/rRegOPo0vA+FRxoEeVTOoDlQMlFI25dTzqE+9F8a1sLa3hivFw6BxyAOrI5Aj+/wA1OSaK1QAY5LaV3C4Xyjls7tqGkY+pO3tyoPqhWrdkYrx4ZVil1ZTB9a45cz87Eb+9DhewdAk91I7sPMfLAAkDnyyPeio0AecNuWVWilYrEAy6VbddWCCBuOn6ipON7HSofeBJrabxxwS1uNL2rX8CukmHWQO40jfmMtjHv9A2HG3kXIGS1BtHZf4xeArm4vbXi3hi3toppx9nvY9ow+BmN9hz/Ep75XtW/Jhi0mkS+LNuTiYGz8NXaPI1/C4nX8avtTRiaXBphPEvC63ECNEpE0Z1IeWT1B9iNvyp0qFcfZZYcLSaFPu8E4BBXcHrn9a6vIvENfwjbTRsGhMjkbEsQv8A2ocUOl6KvDX8JOC3nEVueK232ojYRlj5I/8Aj1PySPakcZXoqsaUeTOp/wAREtfDX8HOLW9lCsFtDw8WcUcYwFDYjUD/APKqJ8Ytnl1eTR+Vb3iAt7KaCORA0xLMqjJ5nAz1JIH0Arx443Kd0bZOlYV4VjjvvDV1NkEpeI8af7mAC7fQfuavkTTo6FNX7KvEvD7aPj94El0rKqSCLHJmGXJ+ef1qsP4kpduxBwWF24lfRRA5VkkVuxQkZ/famyfxQsP5MutfEa2XGkV4FS0F1LI6qc4kIK5weQ3bao5Pj8oXe6K4sq5KLOm+CLyC445LfC/hjtJFXUku+GB2Yb46kHuCKwT3+Wujcobbs0PizhFnchJ+H3sMscYVfIYEMEC6fT0IxmuUlaUmIotOxf4FuJeK2T8OnU+VZ3eMliCq6C5x0ILKv/5Zz3ORKOvY0O+Xo0niK6V/CHFJMZWF4ZogNtlnkj5e+nP1oYlbpC5ZfqLMJHe/6oEVfubhQssahgyyArzGaOSLW0G9Wgvh00xuzDcoqF9wT+Bznl3H1FQnJ+TuSN7w+2hMD6VMflRgsgGAyruf/kM5BHMfFKwNpxtDcXMcUawowYj06l3Gef8AalppnifJxt5XJl0E8wQsmyscCncmtCwi0nZXDxTLMrLlgccq5PWzuST2QnvIBGzpvjbvmklR0qe0Kzda7qPUSoQ5/rUklLslF/q2ag3RaFSD6h3703LnJeka4TvbM5do91dtO7HK7KooTuT5MyZ5OUrQNdylCPMPqG2KVwdJiRg6uRVHLJNIq4ITbfFYvkOXJUBwbZ7fRohVRpJIyalxlGSo6VRf5BVu4I3MeB77V6MGn32Dno8Nys7lY+YOMU0qaBxsOt9KxAMN+u1Y+FaGqRfbzqYsEZPPNei6Zqb2VSxrKwC41Z3p6SWh3HRG8tFS2I5nGAAOdLshKN6FdnFIJDtv71Jdsi4uJpeDQq2fP1Z6Emm5K9hSl5JXnBvPuQ6SkIN9J606ty10P9ak+wPiNrJEFwgYf8eldNWtnTg6I8PtPtikSk6U6Z61yXL8gxwfkrvozbkxhjhRzqKW6BKJCzmEalgpyNh13rQtD43WhgrmaLSQSOoB6113sDbbMP478MSXqniVtC0ksSFZok3Zk7r3I5++KeDa2jR8bMk/rZwiW1a1mvDsy4BU423z/avUhkU0mbWuOzXeDuHtHwV55VwJ5d8n+Uen9yxppM7GltmovuH44SrxIuu3JUjHRJA2PyPOoS7NMNxaFfi6IDhLShFKyTJqypP4lH0O6sKouzkvzYo8OxyXVrfvHqcpMiNq3JGjPxzPIf0pcr6Oxdti228W8Z4HfHy7mW5sIpsGzuPvIwN86NW6EdCuCKqscckNrsnObxu10dNuhYeLbGKaBEEzLrCMutJMjmp5q2M8iM+/KsNvDKjS0sseRmvCfhC7tePMpd/su7DUNiehDjZsdQQDR+RlWWCS7ExwcZGL4vcXa31/LYPJBGzgR4OMoPSPrgZ3HWtmKEeKTRnnL9NoyF5c3a8RZriZ5JQdQckk79c1tikloySvkF20juVLMXGcEZ7mlmrGi/BobZcQGTGWVjIuB+LoB+dRdeB0HeCrmZr7ikBbNyAs6Od84GnH/wCv60Zr8pjY27HdnbC482SCMAxLqIY+t3053A6ZNZn2a1sY2Y824Esi+ZIrD8a7Ox6AdGGcj2FOlydsaSSGMcXDnmthxOxZpIbgysgXSPQrBOXTDE45c67rsR43PoGj8D8JvbyP7CZn0TpPIkkmdUeGBA7Asc/QDpVOVrROWJw/kwy/8D2VrZRyB/KMo04ebVgFN/pgEkk1JYZd2cmukH+EeCcPj4jZ3ll5RktfLdiDkiSNgSSOmSv61WGPjsDTaaZ+oL/y5bCXzBqjK6v6girvKq2YcVqaozN9wlLh1kVAeQJ55FUSvaPS+y9MDl4ApP4eW+O9GjuSYN/9PxRT+YF/H+LoCeh+elcAPs+DlNzkk8zQqw8kM7eyEGZCMYBzRquxXktUjlv/APJPxCkXBuC+HYHJubub7ZOqnlDFnTke8hXH/Q3apN3BmJR/bPzVx+RY4DPGQX16ynUAHbPbf+tTx7Y05UrNF/Du7ax4G06RCVI42Y52yW5nlsAMZPbPesmeX+7TNeOuCovvJ5JUubx1zfPlmKA6pCBsB7ctvinjJaJSg7DLSxj4Dwae4lQtdlA0igZbOPSnySd/djXN83QYxUUZzhnhl+IWr8SlGqMatPZyudTD21lgO+K7NnlD8xGw4VJcpF9lZMk7RhSscbCOQ9SQwJH1zy9jUpS6K7S0bzwGtxxHw7a8Su9GUwxYnALaTjJ6DTufYe9Y88P918eiuN/i2abhDqvGrHgNk6C3hkE166JpEkoUMEA54RFySd84J7U01oSEqeiHjyaeDwbePboHZI7Rgo3zidHbbn/Mx+M5qnx0m2n6DmdcW/ZhuEYubKKXh6rLFGNMlvJ+KIfvp7Hp7VKbabTKxqSH/Db2dnV2WQwqCDE4WQoR0BOCD7Nn2qU03o78m84BNc3xVEkNnav6GlCqZN8ghRyHM7nlnlSJskoxgqQYsaQWJTISKE5U4ycdd+/X60VqzzXJ5J7DLGcLbZmIUnv09q5NXsyZcm+KBRcwS3JRdgBjaqKpOkR4bsrmsmEhWL8AqE9JxQylQ14dbWcEIE2ktzOanjjXZaDj/wBgvGb5Ul8u3wFJwAKpJKO4hyTpaBUjlii81XBbHLsKGKUYtzl0TxqgIiN51luO+3vSTyyyO2UlJRSbBeJ8RWN1EGMYx7Co5VIy5c3JaBJftLxM4BJxzxyFJjg7bQsIuRPhdgTayTXblXPPenxx9l1GPkIsLeEMwiA3NVbvSOUeRG6eaOXSANh3qsocXQarQ5jSNkLL1NNwvYs51st4fAGnLMMBalOfHQ0JuRDirKJVR98cwK6MrC1TFqkLICoXHbODXST00c9jK3nJbU2R0GBU5JtnPKqpgvGOJvar925bSO+d60ppImk2tAtlxxri3++Xf8qJSL8MnaXjxyt5edJ3JpUqGSaJzzLcMwkP4ulBVbIz26C7BPL3VVydhTRnHqxseNhsERhHqAxzO9By3Z2VcNlF1KhOEdccsZoufog534OH+MuDi58RSwWxEKzT7lRsvInA69a2fGbSZ7OJ88SFPjy+NhZQcG4aGjXy/WwOSsYHT3Pf5r0Mddsef5j+TX+HL5pOD8Ma8wDdQokp/wBsmnn9TnP/AFVDKlyaRbC/ygm7sIbuGXhkxCiaMorDYo6tqQ/r+hpeRXj2jNcCt24X4hure+JiivUCFuiSjkf86YPLNDJLlGhILhIj408IO1vLdWwWOdjqKBtKluuljsOf4TyO2aODK1L9HZ4cloWcG4jd8A49YcKmt5ntrlY/K20SxMzEHSeRGeYPyCOr5MUckHN9ojjyyxukdW4dxS0ktL2TzVkSOBvOaHZgeRLDGxxk5rAotmuU01o51xnw/HFbTnh8v2i1cAoM+qIjpg5wD0xkbmtsZNOzL2zmPiG3Pm6x+NDpcfO4P5Y/Wt2KVqjLkVOymxkVAoI54Jx1p5E062aKxAnkjijbSshVi/8At5/5/wCKR1VlU7CuBzQ2/igiUhYJYGiUjYrsCMe+AfzoS3EaOpJnUuB2n2JjbeSZZyXZRvkggEBid9tJ2qCVmxexm/hIz8RmdApkRwoKalJC7ZXIGQCeYzypZQlLaLwkuNMZR8Pjdha3a4eLZG29aE4I+QTy6bVSr7FS4OhRJwt4OLXEkd2IPs6P96SEJXIIB6EZHL2qajK/yUlFNb2F2HBbiO6toeLkOuQXiZ9QQ6QRsewZTg9TinqXknDi+hhYcPtzxFJIEjjlVCdSrkk5wV+diO1Pd6KSVqzqPDuNCDw1b/aWLypEIyO5HpGcdOWTSuro8v6W5tIfcO4abK3KPcF0XcZXGnuM9u3YVtx0lpkZZuT6CVtwYdZcbjIxyxTdnfbvSBooJZolcRqFYZAJHKhf9FHmiicELC4MMg0gIGDAg5PWuuhZZfzyR6VtjcTW0zq5VFcq3IAk8/bag5JPbEcpSVpH50/j8RNxex4nNA0ccqzwxeaChKKY9OARsMlzv3JHWozXorxpI/OXHZzNxNnRtz6f/NGCpEpOzd/w4vVu+CvwCBVHEJJgkRxzQ5JbPUAE6h2G1Y/lYmm8iNfx5WuJq+HWkVhxS9jb1x8NJVSe4UEsQenWs8HUVZVq5MTcavZLkpbKWDMGYMTnDciT7jOB757VoWlZCbcnSNvwa3gg4VZ2USgR26RqoPUK++fnDfnWblykbIqopIzSQJbfZmZ41+2XJidpTpU5DnH10/rRlH8trwTv/wCm2MScL8OwW3D1Hk8PgLQo4/8AcYqAXf3yv0GPes63K2UnGo6Ffg9VhsFZhOOI8UL4eUaWERP3rYzsznIGdyNR2GKrNWrEgrY28XXBEMQRsebI22Niyom2Pz2rsLphyq0YwSPw+9jveGKY7gqdCZ2kON4/ntkb8qtLHDIiUckse0PeHeJvD3FlUPmxuyurS6yPER18t4/vIznPpIK1llhnBF45os0XCuJ2kLxm0v0kMsnlq0cwcM+NgT5a7477nON6zO4ugy48bY2ghmkkE8rPJobYEbA/HKpzcrs8LP8AKXUFQLdyO0jKHxk7L29qn1tmHkX8PgTQ0srlX5nfJpvs9F4uyy34qMtGMEjNMlbs6UNaIC/KyEtkn26k00ewY4NbPrptA82T0k/pU8036LuOtnvDnn4gPLjGFzz9q6GJyexNp9CnjUc1qdCOWYglV59apLHxVInkbkwjgtkbu3D3UZyDneuUU8b5+CscUONs0kS28ViU0gkjc9zWaElGyPNJaMjxdro3HlqhC41Ej9BVFCxWpJWwWC8mhnESKS5PqAHIVy1Irik+htO6h/viPMIyd6tzHl2XWt0MBSPUNqMpVErOMWvA7sbiPVpBGQN6yZU5rQsIqPSBeKlZJcjAYnG1NHToE2BpZO8w0A8+oqzdIXwMrmIwRaQhz0C0E/JBwk9iqSy+0yASlgO2P3obs0QVbDL7w39ntlljb5GOVaVFcbLKHkXREBmVQSeRNTnJLoSU60Wxosk4PI9MVOuWya27Cfta2zgHbf8AKkdxfYXkUT2+4gkkHpcK3zzpeX9iTlfZnJLuZ5tm27VOOSUmkjOmnJJGUlm87xFGSQWKySb+wAz+te7g1FWfQRjxioma8XRxrxS5kfBzBgEjlitUfIJ9GjtlDwTW7YwpVk25jG4/b9ank2rGxPVDK1P+r2UkDyKL63K5bOGYZ9DZ6c8fOKzy/Ls1Q3aBnKcXmNhfqsXFlyPLlAVbpeWV7PnYrtvy50b1o6lew+3+02sbWtyEdCNOm6XMcqjYLJ/tYcg45cmGN6ny89BaQtv/AA3FLe2F3wT7viPC5lnXhl82CdLBiiOdsEDAJ2351bHm/wCMumZ8mPygHiEN34b8WSTWitFHMxktpmQETRNnKsp21DkwPUdKbTVCOTvoI86F4JBHYQwsTl1gdwqnnkKSQBz2GOuKF09jHPvHttHbrG0cemVwSCDsQGO35EGtHx2RzRMRAcAEDnv8Vsl0ZRxwdzr9RCgDOSfwj2FI9hTo0HDnhjv7LiM0LSNDIrYztt1PvUm6srHtHRrmSICC6jdfvYSFVgSGYAbkg5JOTnP/AGpf7Nsdrs1fCvEt3Zi4teJW8t5ZMglQhvvFY7aTqJwNtjtyJAxRWRLtDqDrTPJeNf6iIWmsJkkhkBR2lBIPI5K4JyCMqMaupA3rvsi+kOxU1kZJ3nuJnluG16XcjIA7dAd98dqjKXplY+gk8d+137So6xynSFIzgtpGofoaZ5G9ixgonlvfNBfscs4J0N2IwQDnr2pFJlHRr7FrS+tY4Zbq4spn3dlxpDZzgq34RnoMDHKnW+yc1SuJrbviHFWtJbeEISykLJG4xjvgkHv0qlPwYY4lGVsHt+KcSj4StnKShYGISMhC45aiTsOfv9avG67BPGnLlQyk4xxFVto7aI3EUZDNNEQNYA5ZO3bPxT8q6JLBGTbYunu+MycYa+IKxiPQkRlVcDqcjnvSuVlYwjGHAoZw1zJez3eBLs6xSHUV5AZJ2xvuO9Bx5DR0uKOa/wD8hZrTinhqS5E5S5sWUwLq2ZThHU9xgqQe6+5pFK5UJOKjGz8tMGd2OCxPbn/nKrWY6s6D/CWZeE8cvuJSR6pLWwlljUj8TZAAx78qw/LlqKvyafjabZpOI3cgtLj1kzXbtJqPP8QOT75qEVc/6LTbUa8gHCeGMt+mt9cpUNIekSKfSo+p+pJNUyzqNCY4btmp8NcRF5PLL/8AaaRNI/4FnUfsD9TWfIlFpI0Rk+xV4mbUOHLGdkuGfA6EAAfqzVRdNexJdo6JdFrqCKexUSx3tiskUbMACxdmUAnYNl1XPuAdqhFU9jzd9GQ4dxO3u1k45DO806oHvIRGyODGQPNWPfS6gjKgkDAwcZqs1T4nY5KrNb4jha/4XC9syu5kjuIdK/8AuErpZV9zjYd8DnzjFb0NkpGBjlS7t7u3LetGLIw5rg5H5HP02rXjaozyV9CYxIeKcF4vGNCyXqpdBf5JAdLEezcz7g96OauDQidbNp4ZtVg41x/grn0MS9uTtpeMqR8YDL+VeVl3TGlKXE6tYHzeHo+nT5iByOxIBqDly0eL8iNSYqW3Zrlk8ts9femUOWiMYNropubC9mk8u3QhP5mPSi8fovijKTqqDrfgUUKguSX/AJmJ50qTj5NHBdEv9Ni8xCc+nf608VSGUUgTjFlLOgjjzgjp+9dOKl2iWSZdwFRwu3YscueuetNjdEebekRvrZrs/aAck52NUa5Kw1W2GxzRLwwJEp8zTgAdTWXLOlSKOacKRVbW0pYPckoAdgKzRi6pmeELBuKwvcTgwJ6QK0cqNMsba0iuHhjCUMUAJ65royuSsaGCSXQU3BomOZPUx5netcYcldj/AOnfsUxIjnDDS43IFZm+SM050VuZozhW0Dmc86WN9IpCeiVk7rcapnzvyxzqscVO5BceTs09tJpRcEazilyf0Qlblodrb5t8KgZyNyKeONRVvsvGM/QjuLMxTB3cqc8gOVH+TLLE/wDkXy8SjlhEJYZOADmr640dGVuhRxTy4E+7wBtnsahPH5FyY1FWhZDIyuZcjGNsVJtx6M0nQJLK15PpVSQDjPc0tOTsjJkzYvnGGx19qp9MeycpPone2a2vDZrhzhUUk/FVjjVl/j4rmjnnDx5t7c3jYH3YjUdBkg/sBXoR6Pee2jE+LuI+bxG6jQ8lKgfIrTjVxsjle6Rro7pjHDJbsI5mEbIzDPqMeRkfIx9aSST0NHStEzNLLDDxnhKL9ohQpLbkahhhvEw6rnJB6jPWpSS6ZZtTVrsb8WtLbxZwWG6sy6XqjVGxOZNSjdW7sB1/nXfmDUIycJaKR/3Ftgvhnj/EADw3i0CXLoPu9R0/aEHVHOwccip+mOVHJGEqlDydFyTcWayOSwurNjK0zW1vjXIyYnsttvNXqn/MEgd8bicVTDLoyXiLjF7wO4PDeNxG74a7CS3miAYqp/Cyv7++QcY26a4RTRkm92Lze20ELX0M4ktZXRI8DByQ+QexwDseVBx3QYu1ZmP4g3SXHCLCeMZEsTSqSO2ARVPj/wA6Oy1wswKHCltue/zXoNGItSUhwVxk0rj6OHvC+IoZPKlfQDjSeZU1OUfI8WarhnEltohbXDZtzsM59B6Ef5+1RkjRCZsOGcXjktVgfy1cszMQBkjbBz/MdiN+Q/KkvdGqM0lo0K38MkoaEIs2sLpXZRkt+uGO9HSQ6mm9mM8T+IHtI2jQH7liukHfP4cfXH7UsYcnTFnl4ID8G2kcd7d3vHnaSC4jAVR928TA5yu+x/Dv7Y5E1WSVcUQx5ZTn+no6Kb7g9rFFIkKyOmGJLFmdyRuT9MDH9aTivRq512XXfipriEwDhU7SDfUQoKgHuW+SRnoe1Mqfgk80Vuyx/E/EILbQvDp440GkMSF5j0gDnvkfp3qibE+7HJ3ZW3jSSANHcQSRyx4MmckAnluPfauU/Z3JPpg0/jAMwJkaMKxR8gqcjmu/bIBrvsXoYtk8XSWtkqRwzSCbIRtOzsBnGfg0XOhGkVwDiPGr228p1RSMhEbVqyAcjBweo9sdtxz5T2TeWMejS+J/D1nw3whdy6PtAnRftDysHBycA5b+Q5xjYqcfNPCCjsySyOcrZ+Vbq2+ycWu3MUKCBdYjjyQDzzvucdzj2GK6fVBgvIf4M4kY715Z4Xmt9LJOqH1+W3Mr/wAgRkd8Y61l+TBOKRowS2zXvwxrHiskkjCa1uFVrSePlJGOoGMq24DKdwfYgmCkox2WScmyjikzW9nPFbSkXNwdLup/AOWAewzj3JJro/uXN9HS1pDPw2wt59GoACDUFz0Rgc/lq/MVKe9lIaBeNh/RnIKzSYPciQ7fkf0owk7diPo0vgri5u7WXg07ff2reZaFjs6SadUQPfUcr7nG2Bhq1aO5JAT2r23iGQwyrHfz65oZMDTcAnTrAP8AOGwkiHmQTzLA9NtxUkLBq6NH4LvbDxLwC94ZNG0UkYZJbMk6rcjGQh56MgFWOShwGyACYzTxvRWNTjsS8YtLmy4jdvfwpJGyBftYj0uSFO0oGfVg8+vQtVMc9E5RpirwrDFPdXdtdoBEZRcJ6srnBGQe2f8ABVM7uDoSKtG58OWKXfErjiCM5VjJGGZSoJKwjbfppkz8ivLk0+hZzcIuzWxztAdMcaqoGMDNQk6ekeTkm8mx3w63WVRLIwAI5datii3sfGtH00rG5EMQ0pjc4ql3+UGMndICvlIbTG2ZCMAVnn+ZBcql2VQ2t2g1ygFem/KucpseTuNoje3KWjAgAggZNXj/AGZ5a0V2UDXs3mlMRg5AO2aRyp6Bii+R7xWUxgQwjfGnAFU5NLRXNHWiNrGlmokkPqP6Vlcadsx9PRcOILPlSNx0G9TVt7N2DHq5Awkla48uFCWHP4q0EpPRaEiJuJFuDGygEHFNGNMLyO6RZNO+v+bl3rUug/YxStxBcXAYHS2enOsjg07R52TIp+C6/tDIA8eM550YNspHZC14bNI/mMwYLyxXTk2uIJtxVB9qtx/qSKyny0BZieVUxxtpCYVc1ZppuKra26oqnzCNR35VeWmepGkZy7ubm9ikk9Sxjt1oRiFrkjn/ABDiV1aXgUamjB6GpynR5+TJwlQbxDiV3Paj0NkkDB+lUk9WVc+UQywZhBpkb1Dmajj/ALM0lTGnDIkQ6kCkk596qq7F4pjhfUmNOa5q9gUHezM+NJJBwHiKqcqI9/zGaCfE14Y1NHOLq8FjY3Daf/b1E5PM1rt0kvJ6yRgOGWbXskl3NltcwAB9zW63HSM9W7NYuo2MaRN94sTIpxykiYMNvjelfYSU0slhxGDiNkQI5YyzId1ZGOSrD/i4P50JRTXEKtbQ94ddQtNJPw5mQMA09pqwQOYdG7g7g9Dz2JzjmuGjSpqT1pkOMXitO8jRh5NPmuiLp88cvOiG+HB2ZN8HbkQa6K/5B5XpjPhNwlzHbXNtdsoXe3uYziS3J6Z5mMnmjZxy32FdKLVnUn0WXdvFxS3k4ReQwRXIOqBVGmLJ/mi56Ffqu653XqK6EqZOcPZz2/g8mNuHvBJ96Z3nt84ZWJwg9mBQsD3fsa2W01Ig4t2hkODW/EfCMKCVSkDyQ+Z1Goaht0PqO3/Eis/OUcvIsoqWKjlnltbzvDKAHU6XGM7ivVT5K0efL86LJICvq0nB31d/iicUqCAAfVjvXPo41PD7oiwgabBG4AJ/ztWaadlYdUxkt9HaRt9nGYSNQRTyPfHSkqyqdaBv/qiWKFvLVpGB9O+Mf1p/rFeXWiHA7eXjl495xAxPBC2yDkD12Jx9d6LXFUiak5bZsXklRmMFuYl0A6S3q0nbJz3wRzxjOO1dF0Omhhw6eCC1lkypuAuw6Lk6ckfzAEjl1xXWmwuRvbOPhqG3tUAYAG2ZQ3qdUAMmT/yxufc46YeMSEsmy7jFuGiIMkbIXVIcAhnmxlm9lJaQ+4A9qr/SFi/LEs3BYFmkRDKUd2jQluufWTtuQGXJG2qRugApHC+yqnRG64PNLxC/htgBbTxPIjS7BWViBsdxs4z3w3Ol4o77K2HWfg94XmlubnT5blQGbOEwd/lTq+mK7ihZZr2bW3FnwaK3j9GoZUNjCswAwAByzqGDyBbfY7OqIydnMv4q+MSOD3VlaRDzZQUmhlJw6E4blgh9QwdtyAeZOS5BivJwCx4gtpxF3nGqGRdD6snG2N/61OceaKxlxezR21nFw7gclzaNqFzdCNcnOFCliMjnvWSbc50/BpjHhG15NRwy9aGwmFxPGEuEVoIGOWjkUHJ74wWUkdAM77Vmmrei0XSsDmZRdS2z7PDNEXx/yAI/UcumRVKqGhV3QZYg2vF7GZs+WVAxnAOR6l+q5/KpreN14Hep0GcVtmju+IQB8qSnEIDj8cZCrJ9Qy7jpvQk9JoC1oy3F5Jba5E1vhWFumx5HQ+4x1yAc/WtXxmpJpkcqd2jWWHHE45w1kvIjcyoC91Ej4mcYCm4TOzOoxr5FhhjyJpJw49hjK+j2/wCJu0KcZt5Uup7SRRc3EJ8ma3cAAS6xk6GGMh9SgnnpYGk+t3/kfkzV+GvElt4y4XIlwZYOK26uvmRqAzoObADYgZ3XGOZ0ipShwdFFclaFfB+FTrdya5rO6hlxjyyUZjnfK8uwLLtsdulLnknB0R6Vs6tw6yt4rOOCFgzIPUSOZJyT9Tn9K82eKXcTzcicpOmD3cH2ZxhTp54qayN9ok86iuicfEFjQF3wOfvVueiSm5Ow2G5SVdUYwtIptstVqwOSYCb7sjJOSTXTtvRJY7kXy3M9wFjjkCtVW3VI3YoSRC7QygJKFY7b9hVtKLbFyfl7Lbi5NtZ6IB6uW9ZFJyaI/Z6FMVzhvvTljudq0Rk6pgnK0L7+W5ku1VN0K5H9qnNNsiuMQuwtZLfLyN625567Uv1NWaP9Tx1Qxtpkg9bMuphjbtTxi4uyX2u9A0EUlxxdG0+liTz/ACp5PijVgXJ2xlxNCLohVGAAK03Whpr9MQtb2rsWVwpNYKbPMXeiQxoYI+sAbb0qbRoi2XcK4gsAKu6nTzHf608NsnKSbpjuw4jBNqGAJAOvWtsGnEEXxdlN5pkDZ22/Klu2WXyDyO7hFqYmIOlfw+9cpaKx+RqqMvNwxJ7kyeUu5zvSNeUZpRcnYfcWsQhJQZaklLwNDQmFldRyFjExQnOR0pf8k8rb6HfDFydkZSepFcnQcc2kFTGdXYIBp/U1eLaNeN3sUXNhNemWObKwygoVxyB2zXS27Zz/ADJM5H4n4dcRiSxmBExmIlAPbb/v9at8d/s9RU42gfgNuv8ApyuFGk3LY/6Q2P6V6HolfZLhsgR+I9XtbhbpQOelkCt+3612StBj2EotvcxC385UOsy2zMDp9X4kO3IjBpbD2CSWdxayFoZDDPEwYYYHy/fbcr+1I5RaHpjJL+PiMBE8bRzxvqcKAGjfGNS42zjH/F12ODUMkeHQU7Ahftwi/RQ8cbT+pST91N0xn+U8sH4Brsack/6C5cWa+0uuHcc4eqXZaAxuUjmZPXayf7W/4nqM4OxBBANJO4OiykpqhB4rs53uVe7ULxGLSFuVJ0XMedt+49+RxnnTwyapkZQoC4DxKB766h4hm1W4hKXigHSMNlLge6NuwG+l2PQVaUeUKj0Ip1KzO/xJ4Wlj4ibyE8lhmKaM49DLgjcdCDkEcxy2NaviyuPEh8iNNMzapqTmCMbfy5rS9GcrkhQZLEex33obOIB3iQKoyvP2oNOzk6IB1L9QTtzzSh5bsPWItDpByP8Aj02/epcvI/HVDiwuhZJHEqho41wijHPmT7mkcvKClQeeLSJE/mSNtqbCsQS23M9MjbVz3rkwtULrHiVxNM6FcJJoAQD0ZU5A36ZOd+2aZtIB1bgNzcGN43ZUZw0zS4ydJ2zp99tuRIFGMkmSlFWaJLrRIsgZjIoBRm5h2wdWe+kRjPTAqjmmcV2F56RKhXQGKxnH4UOk8+hIDH6VP7ANWGTcQAYPIylHtsMOQ05JX9h+f1o82heJ5cccjh4e6SyKHdizMd1J6k/Uj64qfLezq2ZHxH4ydrdraN4i40M6MmpJB6gw+uc9iO1PdjqBzfj91NLIbl2aVX/FFLndfw4B+Ns8jncVSLadMd6Rj+JFRcgxaWAICOy4ODupI742PPcHnVKVCN2a6xtXvPDPBE0siLe3CyjHVhGwIP54rDlnwlL/AKNWPcU0NfDttb3s83EOMztFZRlkiihk0nAwCSeeOew57/WUlGCUEUgnuTKeK3fD7riF1ccJebyArsWlO7MfUD7AHH9Kfi40mDl3JDqMjiHA7S5tWw7KHRguyn8SZ9s5Q/NQh+JSi/BaUeaTQ6S7+1WNpxBYw0aPplAHrt5TtqweaOuzL3XbBwamlx0zpNvZmPGdj9n4Wt5AhZLeUZXngEg4PXGPg4qnxpVPiTzO4mS+1SWnEra6sZTE6FGyX3BDdT+e4ra1aaZBWto1FtfGXilzNYAWXESnnBon0rJzyewJwQVPpbPuQcb0oyNFW3FF1hcRYtZ4lHD7+UqyS2C6ELE51KmfQduSnT7AbUmSVybOSaN54R403EOKIeK8OsZrpnaIcQt0MEshXH4tOFY8uYqGR2qA5LizdyTRw3CvGsykncl9vy71l2zzOcL0gmS8S5VUOSRsD1NJkja2CcVkVA1/wNrrRocoOeR+1SUGSx4blxsPhtZLS1EWMsOW3Og1TKSXH8oXyxSx7lcjJ37Yq/FxVhWNpWDWt2JLsRqxVjkEjpQ1LsOPI7NFbxC0hMkzhmIye/xT5VxiL8jLoRXVyGYjPPcAdqnhXJmPHF5JUiVjwsuvmTtnOSPat0MHmR6mL4VL9BsdjGr6kK5HLNP9KvR2T4ak9Ce/t7rztR/D260ksT7Yj+JW2rBbkyrgyaufLnUnDyxHi1sccDuMzKxJGO/T3rvKY+KXC2xxMkdxIZGG55+o03NCSyKzm5W6aEGN2A9hkig4PwQlBR/iaDw/Z/8AoHknk9b9+grHk/MqNeHCuHJic2N5JxYyWzlotW4HLFUxwk9owzhzk2Mr2xu7bRNE2Cp3GelaEpRCovodcPEl7bkF1G25rnfbDH48pdFo4QsccjNM/mMOedqSME92a8OKMG1LsWIXScqqlkGwPUVZUkDMoxWiy1bzL4RsCSPVSumZkk2PIQFJWTTjmc96STrROcErPjLbK+AwHxS8icUWSeW0etc8sUXPiasUXWhRJcgu5i2Vds96dS5dBbaZy7+I5A41O2wbQp+fTVsNKR6mCV4xBwgr/pSadkWU/wD7f969Ba0zkrsXcPnS28QSl/8A25UMUmT01c/ptTSX50CL4yTJRW7xX91wm5PoQ+dZSlhsP9n0PL5I7YnyUop+R1p8X0+iMniHiHB1WO6t4b+3jb8M49SDrpbmP7UqgsmroMnOCHKXfCLtPtcdpPHPGCrLbyKxIG+CrDJ6kb+3I0k4cNN6KRfPoX+ILCzv+Eyw20zvgG4gZhkDH4htuNt8EdD70uKThLkuieTaoC8OXtwJCylWkSPyyD6lmjz+Bu+OW+/LsafLBS/oEXRqbiea0sFljH2nhEgz5c7FjCf9ueY7A1jSalxZobTWjLyRJccbtLrhM/mGKdY54ZHAbQ+UyDyIwSCds8jvz2424RlGf/pllTknEnfz8NuOH8L4Txu5cXUVmjw3sfqktlJbTFIhx5iKuNsgr/Keh0Y7TckTyLwIp+B30DlontLy3O4mt3LjHTKkB1PLYiqrIiLj6A2s7jnMrIcfhbA2+KZyT0LQJNECGIJBxgbYFMuzgVolUAhT9O9OL2Qb0Y0EDG/PlS8EdbJpPJjV5shC+lfUffNdxQb9hcN8VixI2oHOrJztj/vSPHZ0Zh1lxFI1VkwCvIZzuc/9qhLE09FeSHtr4sSB54gZNBYKSW/GBkAe3P4AzXfXLwTbsNPjr76P8DZxGSRgDUeeP+rR9BRWOTBfgI4f4uF7bea+oKsgbRgA68EmP8+22PnFNLE0C2B3Piie4PmqAUiYpJGeWf5B8YH6fFNwfkKRVxC9uJ5opC7yRaQCX5sS2WfA99+fL4pGkMoeQaRJGljG+pAB3wP6iiq8jq0QuoYREJdYXfGDnB+nQ1zk2BLyzE8QKfa2IGhTsxUnb/xz+lXx9UxDS+BLlpbS/wCCgYuy63doc5zInpdB7shJHfSO9Z/lY+pWWwS7SHd75Vhc3NvMG8ojkCBpLLk//sT9awqMpNM0traQn4TCzX0NsFDfaJCHYHIxpJz+XT5rRkd/p+BYqlXuxr4D4xFw2VeG37hLackwyuMrG52ZGH+00vycPL9rsbBkcXwfRtrixSwuHKPHbi4XEttd58qYN/slAwVODg5BGxztWFyZo4KifDreOSG44dcTC5tWj0CUTLrCH8MbsCcODuj4wccx0bk01NaF4/loxHiXwjxHhvmzwQS3ljuy3qAFCOeJBsY2yDkHbOcE1tx5VLbZmcGtCy1u2tpuHzxmFpCh0nWDuuMqCDg7qdvfaknHUo+qKcuU4m4Fhw68nsnjvP8ASr1Csio6ZhkyeYO2knS23LntWLHLlF/2UlpjzhFg3B1uCpEjWdyt8ArZ1QsCr/JA3+lJPWmZpu3s392kl1bq8K5jYelhyrPFNHm8HGTsD4fqS4BdSAvT+tGh5SpGhtr0NJjcquMHoaL/AEtlMK5bGZuLcqGPQdtzUHGmUyJCLiksktxogGpD1p/syReiCySXQrThF39rWZRhSdWO9LTbtGdxk9jDiMcwjBaRsjp7083yVohJOXYidj5wMhOB71X48KbbNvwkoyt9mkt7hHtV9Q5VtUvB6ykmUyXTxNgHIPOnDsGuriVtjjHxRqgKRCFI7l0SUgDqalKK6FnBMLa2ghOIclcYzn2qU4xjVsyZo8VbBUvSuQqlgDzzXnzkuTPOpy3DojxGzW0ttKtueZFejL8oa23tggkH2YKWxkbDOMVjyY+Ts9COSDhxQw4bd/ZrRUVfVz5c6viaxxpmNwoIeR7u0cSBVONhjkK5ysmpKxHw97y3upBG4bqARiuak46LRk+0aGH7XNGWbIHQjrWZwkntE53JAIci6YY3HWoRlKzK8jSoacMhSN3mx6iNzV8eSXLeymK2wTiM7tKdJIxtgdavd9jzTFbyyhgiZaQnlXV4M6u6LYJbsN5UvoUmpyg7LRnLHpDCCCGMYYkAbnPWjXHSHcrVnNf4qRrHxhZQAY5IlP1G39qpGVNHp/CaeOvRhuCT5hu7fONDah8Ef3Feq30y1Uxe8wPGiD31HsM4NUT/ACJLsZW959uhuUYBrqwlyhx+JCRgHP1B+lRca66Ct9+Au8givLcxudZ8vXG4G8sXf/qXr3xSXwdl1U1TMXb3s3BuKgy5VBKI5sf7eYb6cxWqcFmx67Mzk8U/8G8ng0xQX0AwI5lk55CfyyLnscZHs1eapPo1OKatCPhsZzepbqDLbO7KE2LIwIXYdcj9K1yf5TZnT2bDw4HczQTSmSxuIZGYOmTE6YYjA57E6h2HfFZMm5F4sS3NrIniCJUt7QeU5E8kUao8MZQt6tOA0bADEg2OQTg7VpScsbtknXJJIwP2u4huZUF7PJAGzF96cFDyIB5bEVujXFaMs21JnsK+awcABjuWJ/XPOnsRbdsNjjMmrLGQ45sSQPrQ0BlN0igErpI6YycfXv7UyYX0Lbh9JwOg3PYf36U4AKeUbDcntXASK3kIOMjbmDXAl0ewh7lTGo3DB+nLcH9xTCpFkgdcoHLBQWC6dyBzI+OoB70Ap+yuUSiU6idQYt80GkMi+ONcZkJZQM+Uh9TD3PQc+WT+9BJLsV3Zctw73ccisUmQaBFgAY54Xpnfccyd8k5rn1QxorbGjUqlQdIkQnfngEjpvj9Kna6GcWNoQvlKzhiAQAB0waSSKLoky6XGFXQ26tvj3+PilOIcSRhCDF+I9uRPeu7C+zA8VRllcvzxk71aL2RloaeEp0sJnv5vvpo0AijBJOTsDt7D2+dqn8iMsiUUUxNQtm44bZWfEvDXEfEvGZQ/3mLkQ7iRiwUOP9r5IOB6Tg7VjnOX2fVFdDxzJN2uxTfNwnhljcTcEu7yW5cY/wDUFGAyBuunBBxzyO1FcpNKSpFpuKVxM8kaycPsoyD5xfzCTzxnnV22rI+LNf4Q8ZSQxy8LujH9nEh8oXCeZA2/4SDuv/UOWfyzZvj1UkXxZfDNZPwm0vrpLlba64XfpvFNZSeZDOp/l9QI/wDiT8VmhkcdVaLNKVS8ool4rx7gUdzcNcBbaHLI7ygSKp/lKjJI6DII5b9KfGlJpE5LXZkb/wAeX9zxJI24fwkfekq78OgMiMSAW1aBkkHqPrWuOGPC0/8A6QUnyNz4eii8S8JuIxJpmSdHZCgCHrjGNskcx2ryZP63TKZMqg02bG2tzbxWct/JGbyKIwN5Y9DL299qzSk5L8nl/I+Ryuuh74baG34aLVHOhCQmo5Kr0X6V2OXLsX7vsVkpYFlJEbb9M9aZyXVlNNFsNmVgKqfgg8qaSvHS7OV1SBGiuTMRqyo6/wBKgouOheI54eYkLeegzz+adSV0xoquyV1cS6nEMelMcz1+K5vdItaeqF1wxuEdJCQw7jeujFmKapmc4hAIEkknY6gPT2XtWjDK7TL4/wAq0Ir7il1DYh7bU3IKBzq17LYs37pnieIbuONfORhk55VohL2bXO0NbG9m4k0aoDnYbDrQlO9IClehunCLxbg5DKMcz3pZOtjOVLY0dEjtGQ4Mg2JJ5VhyZFNUjBlnz0K7eVEQq+NWTnaoqzPqOj3isdxLexwg+huQArfkflnKHIMfgcqQqxyMgbk1mUrLrFxCY0t7eIBxnH8wHPvVKi+xMnRD7Tbu5EZ265otKtMxPTJWtqpkZlION9xUbalpmnDLwS/1WSybyDHlcbe1XWS40zpvg6PpJba4TXssncc6lJRlsi4RkfW9w0asNQxtSRjxY8GoBFlaCZ2d981WK5PYylb2j24sUt5TLGANiefOnappglDdoD8v7UjOBp0jH1oTdvR3FS7BgkzLpYHI981lfLwHhoyf8QuGvccE+06Tqt2we+Gx/WnizV8HlCbjLycetXNveu2ojzB5ePk/+K9ZPlE9CSpiyWXTxmM5HqXT9BWiD/23/RHInzVDzw0i/wD+TuWJMZkETEdguSf1H5UuTUUkdF3JsNtvNPCsZC3NjMxTHbUdvg7/AKVLIlaKYmIvEttHPNBPGuVlUMvXHt/T6U/xsj4uL8C5Y3s1vhIvdWUvDy2WkgeJev3qDb8wQPpWXKuMy2N+Bfc26WF0vHrVysBiYSrhiFJwWD6QWAzvkA7jpmtUJOceDZGSr9ofcH4tZ2V3FeLeWBhEqXTKJHByVKNsUwQ6sVIyMek9DmMoN6fZRSrZR4utRYiA291KyTRu/CuJIh0xwNk6WYZOAcrsMpqOdQOBTA70xJpVcfJiJ5nNwBf2MDM6jFzD92smw9QK+k9sjtyrWoOtMyvb2Qm8tdo7fSNypaQt9d/7Vyt9sKVE8OysXlbTjB09e9MpeANIpuVQIARoU7hAPVj/ADrTk7fkU3KjcYC49+W/6067OAGX1kjlyHtROK1QlscznfJ5/U1wrZfbwknaS3APpKtKEP67Z7fFd/YUx7w3hty1pPJFODFEwLrsW6epGOwYZ2O25G++Km5HVYDeWQW6wHj8t2bDxj0YyQSB05Zx74rm7Y1Mqhh9WFiPl7ahnkutRz9/60UACnZ1nc5DEn8R3P69KZOzh7wXiGtfIkYnII0nqOoG3Ol4JbGizWcPIkzltRYYbs22zD5H9alJlUgmSHyWAyCBzANSuwtFFymBliQOQ/8AFP0LRi/EdsIizIhKk/i1b/lT43ehJLyJnVEcsWDORhVGfSccz/anEOo8B0z/AMGeMWEUmbiORbloyOiyoSM/AzWBuvktv/Ar00ZviPC5bVJbmMLJGULyKRkoHRTy59QQfb2p8c29M2TSA4YivErdgQwlUEY208x+WaM5fkMUB26SW0UAaPDiQ6wdyT2/eqSamml5FX5OieFIJZOHSTWd5r4c6anjdPMNsx31BTz3/lP0NYJt8qmuv/prV8bQNY33ie9vL7hlzdll9QQWeVQjGRImP5cY/PHPNNnljxpSxmeM++bNN4b/AIex3TW1xxszE+ZqaMyYOnG+fkgfSskvkzlpGfLnhH+PZ0Ph/h+x4TaOlgjanJIZjk47fA6Vjk7Z5+b5EsjplM3Dyp82Y7HfBPKljJRROcbQLc3yWmAT6mHWhvuJyg10H8DkluZtRbA7E9KrDC7uRoimouzRwyRrnzCRgcutPpOmVxyS7FdxxCNLrEaj3JHep5JJE8sv1oNjvIwQ22efzUpPk7JyyBEFx9pYKMAct+eaLdLQym2D30cUdwCXG/PvmtSRd47iLOJWEfELVxg6j196EGlZKFeRd/pBW2C4B075HfNUUhq/VoWXHh2eWXzC7Bc406dvzrTGWrNcG62arg/DP9MgjuQyDByQBzqcpOKuiazU9DS54gb6B3h/Ei4zS8pZN9AlJzM0i3AlXzTgufw56VjcJOVEXCVg1/KIrp0AG1VlD63xoHFGptVg+2pKw146nkKplTa2bI41Ej4i4rILmIW49G9ThDaDkarQiuL5ifWM7Z2p5xszSSaFzNIkokQsV/29xUnFroySxodW9zIsKPH6SF3FNWrFg3Fld7eEx6pFyR1PSuWtj5JqXYml4qqaip5Z3AqcmTjI8teKTzboGI9hSqT8lY0zQWV3dRDUc42yaqpNbGbS2M/9QNyhDr7Uyy2Nbqwd7xQmmIqWzgDNBNqxsUb0wWa78nAlwCaEZ2UknjWz2Xy721eBhrjkUqy45g1Rw0GEtpo4H4u4LPwa6lt5V/DJqjfuudjWjBPdHopqWzLcRynE1P8AsY7/ACK34qcGmJN0zScAXyeFXETAh2uJQ2R/xTH9aXI06Ex6shZ3pWSxd29M0z203YZ2B+h0fnSyjqX/AKNCXGmTjjPlpA+SYpnAGP5cj+pNRg/1fstNaoJ4PJPw68uIV9M6IZI2PQggn/O1HKrfIROjR3VnNOy8Y4CyeTeZaa2J/DLj1gdmzvjkQc7ZoKVakUS5q49+TH8QHDboSW1xY3XCb1xgtDgKd+YVtsfGKtBuLUltE5rkqaoM4HJdcD4RNZXMEfHODljIbNiVKv0kiYeqJ+hxkHqDRlkhlafTE4OCtbA7f/6ZnhuJuF8a45w4ofMmt7izErbkAetJEDEE4yQOe9aHzTVpP/BBOMurAJLmNnIt5rl4cY1uVVj/APFdgPbJrknWziyKUCNcDkfTkBf1rgFM8ZLDUCVzkjG7Hp/SqJ2LKIovtJLAKPpyz/anToQXSb5Xp0Uf1pziv8DAjduY25Vwlo1fgzg0/FbmSN8NEVDOQYyFHUeoEA9cZB2+tLKXg5v0ds4J4IsBwxgPKXVlT92gUZ26ZIzWeVjRkZDxN4AltbhpoF1AsPSmDqwrfTY6R8YpIya7LJ2Za48ONY2LSssph0Kp0neZkYkgfJDD4QtyxmykTl2Yq/UvEpdArfiYgYxk5x/naqLsDVFdkrJIhXIXOc/2rpvyGPZ0Tw8AYBJ6SBsR265/rWVt2aF0MpEXzSVIAI23/wAFBaOKp4ZGKhnJXueVGQTL8ctfMmwHDdQR2oxlROavRlrq28tWxkgHGferp2RDeB303DuIloViZWjMREpIQhl0kNjfGCc0k4xa2CrOtp4KfiNjBdcOvvKmS1it1LDXHcqkaoNS5yjbHurDB2IIPny+Sr6L/Yl2KYfBl7PHLDDDZyv5c0tpkER3BjdAwU5DR51HBJwSPfNB50nyk9CS+So6RfP4C45JD5VzYRt5ikxzpMuFbGQGyc5B2wR9etSXyUv0hpfIx1aezRcI8BLYXcbycQYosejNvmPUTz1A9P33rNP5LmyUvmNP8m3s7KytY/KsoAAAATuf3pZS9mPNlnk7JIrM+lfT9KipNvQkYsOt5jCuLhfcUXjp6OWN3sH4xcefDmMZGdyBU1G3RdU9C3/T47zQ8pwUbUK3xaSVDpJdj6C2+yw6l3wOgxmllNLYrk2fJ5k5OTjG3KszfPYyVl0tpGdEroHK70iX630UVLsGaWGaQAQkAdSKtLi+kLNx9BLwvbaXj3ycb1NwSqVEK4u0U/YJJblZnztyOrpWhNNGnn4JS4iJQA6j0FTktmR7eicSRxKPN9R/mGciqKLSTKw0y68bzbNvLGG7cs1VPVI1Sf50LIhc3FoYy5U8sDbFJGN7ZBRads+gmFmhiALk881WKSKQlbPrhkePUVwy8sbkGhKK7KzkujLX0V1Ncs4kCg9GG4qeRTlK7MsoOzQWTN54WQZQ8jmr5Io2Tdq2Oryy1WmvGF2351GT4q0S5Np+gRLGMwqRt3J5mlUuRnk03QNcRaVwuCF6AbiulB+BJ3Wj61MbW2kg5zucUYxVNGRt8qYHI40lZMEZxmkS1TC3xehVPYR3MwCsE1dOhFK/6HascX3DxaRA269h6RRa4xSQHUUeC6MUaiRcZ9t6F2BZG2OeGwLNbFo989zzp6o2448loFhtAtz6RpIPI7muVUNCTT4sp4ggmlEYj0t1LCjxizs0m9MrtJHtL+LUC0bek55CmUuMkSjJxeiHjDgdnx2COG4KoWOFfG6mnyR/fKJveTgrPzV4vt2seK3anPokIBxjIXb+lbviu4UXybSaNBJKY4bgrlgziZQOodRn/wDUUGvAIq9oR2TauG3ud2iuFlU57gAfsPyqrq4r/oWKtO+kO4rjzJLe838ueMFh/tOfV+uT9KyKPGTh6LKTlFMPvVEjwXNtjzYmBZc/iHVf/wAc4/LpVJO07CLrG+u/D9/cywKLjh1wfv4JCQrYOMgjdXU4ww3Ge1OqyRp9kncW2hqeOWvEAcXVpLEDh7TibC3uIj0xL/7cg7EkH2HKg8DXW/8AAVmvT0VzzvGGjsIhJKMlYxLFL84YEZ+CanHHTqehnNNfli26teJ3UM13xSzSzgVQhmuIURiB6uY3YnAGADvWmKSdQdiS5SX6QpgiLDURnmMf0yKqQotRHhl1xkDpp3GNqDdHH08bhcuSC3ILzJPv296ZP0BqxNcoDqByCdhtgVUm40BvHlQFxqIyMn+1PyQrVliW4e4WPBCDYknc0bCdS/h/w2eWNAsc8cAbS+JUVXPYKiFnPLfI67mpSlQGrO/2HDJlt1e4LF1UD1khh7HPP671GTZyVCbxBepYpMZWCRKCGYqBjY4P9M/+aWKsoopnIPFXi3hnEeH/AGS0JXXDoOG0IA2PU7/TZRnod8CrJfmhZd7OTcQyztumh5CRoTQMew6D9afo5xaRfY27SOFUFnI2H9aSboeMd7N74fgaGIyLqZeTA8qzW29FlrQYwdF0sgG/PHSm0cQcMVJAVFHMgZyK4FCi+iDjBkUntjeuFd+RFf2SrbAgF2J2qkJOhJdCK7jKTpkkEAZx0qidomtnXf4a8XSaFbMM4IxnLas/2ryPk43B8gZI0rR2VOHBbaGVVUmNNKkcwpxkfHpH5CsGTL4MXKtie7nkSUpL6UHImo5JOGkQct7F15diMAKNS56dKhCUm7BfkY8Jnd1PqyK3wujTGbqkFWhAuy0npBJNTX5boda2NeIRx3tsFQjIHMHrRcr6HUrQvgt3iGhxqwADQlFLoWT49DSK3jFsSQAQNzTKT4AlNspd3ERAGoDtRjFyROLdgtuksiu5zkbb9adQSNzSj0VLxK4d9CLlR3pXXgySf6HFnCQQ0q4LEDAHvSuLYYxvbPPEXmw2yyQAtjJx71SSpUO4NMEs72d0UONOBkkikEUmnQTLmX1BcsvLFBzRTnZ7bxrJIGOQByB/eqwd7H5Uii4hle9CQHCMNyOgHWm5XJJBhkb0EXwhtovLibLvgn8qtXDs510xLEQHOFJPcnaglxDFKO0RmmS3nUshZSelJKV0mI7bsLjDXAMisVBPLFN9hWOTRbZIsTMXC/iyPYVFZLiSU0MZbwDh3pHpAOCadStF45NaFUUrKh9QbPPApNx/7Mc1s8Rc69I1Z296KaByT0WJBHFGQuWelpRAoK7AZrYYPmHJO+9Ml5ZKcVeyVpYedKGiHpH+2pODclQdS0id+1xFMiBSQOZ7U007/JOUZIHnPnx4ZCW5A1SMG1sMISZfwSSa1uGRoz5QGRkc/ipSTXRsw3B2zSwSQM5JwXHLarQVdmrJOL2mLOItG8pKqQRy6UHLwYnFvbFyIkrHUd85+KW0Dg0H8TtkayEpYqQARmrxXJI0xx8kcV/iFwa2uvXCPvVDgs3UEk4z8k/nV8cZY3yizbjVRpmZWCQcHsmxqYW/lP7lTtTSmmysVSEPDgqXV1BIfTKhIJPt/wB6rP8Ain6EqpO/IVwidgj2cg0urFkz0J/7/vSZo21kR0daGVrxGCaIKcRyjYwueed8Ann+4pMkX4GUl0GweRPO8V0furkaXDHA14wDk/hYjbPI9a6DaQ1oHfgEinSHR7iPKYc6GkU80kXO/wAjrvVllYOF6F1/wC5sOH+bYRSxyl9SxgDzAmNx6eeDuCDuPiqRyRlL9Ep46/iL7Zbi90C4unuJRnKmQv5YHMk52O3L8zTypfxIpPyM4IRpGUIJ5HSBtXWjqLvIdGDJISf9hyRilbsNaJSooQkKFJPU1yZ3QjuSkS4KgdmIxiqw7FboGjiGNMKEyNnc8gO9UJ1fQ+8K2cU1xaxRwozu2nKqTJMeezN6UXucchyNI3boDTR+ofAvB1hsIn0R6YwUXA2BzuB19s/rmmokaV0EkYkXOw9ALYA96lJWyi6OOfxhcjgVxpLNIDlc427nPt7Ui09lYq0fmk3M3mEs/rJbOR35n2zty7VrStEy8OzsobJB6880t0OpW6G3DwDOMBRNtnmT8VCTHXZueAsIG3xhRvttjtUadlbo9Uqz/duSpOyE5wPY8/zpwFrrhfxAY5ZrjhbxCPOkhgTnBxyPxXCtA0to3oUfh3ycd/mmS9i1RkeKWj/aJAVcsFLbDkN/7VZSVCy6GXgniknC+IRyoVDA7gjNZvkRU0GMeUeLP0j4f8TxXNhE7nAIAPt/avFzYaZ52bBKG+wfxNZyXyrLZupT+YA8qzONqyTxSatgXBrNZUK3C6iOpoQjbaOxV1IY2VmYLgeXkxFvUO1PBPpGiMOL0Mr2wMrLoAHpyxFaHEE0iUS+SNEY1EjqetTyVWhoLR4huGm0sm3M9MVFyl1RNsYSIZVVVIBzVIxsHBtF8Nn5ahix5cjV4JxX+CjhxVs+khzkIvzjvRi7dDQdnnC+GWzTAORryc5A29q5JJlPyXTyR2l/GkrZQ7g9qbUWCUlFnvErqC5KhdOQOXejklbBKd6Rn7+SVJUjjj0Lvv2FQlvsT6m+wnhd0RcmLkrDOrFGK4SK4406CbqMNcYyR1XB5GrcUzpQts8lvI7OFowMu22cden0pJOOK3W2Qb4dC+bLTqZCDtnNPy0UhJMvtIYyrs7KCxOO4zTRdoqmmLL1Ab7ymGpcZB9qDXhgTaVFCG/hyka+jOR6hyqfGXoEYKhhJIds7Z2qUFXZmfY3tYYp+GvG65wMnG29Vxq0zVjaS2LIbQo3lYYg5/z9qWrIZIuUrQU0ItlOcnO/zR60PHHS2D2khWViWz2yaJN92W3aG7TBTCjqapfJAlJNUWQOtjFkDVnlQjrbBD8oJjEd5C7Y9R2z70Ek3spH9+BZBZeRcFriTODnGdgKMb8i3xbHuuzlGmJV8w866SiFTT0iqC10TMTy6nPMUlNvQIxpns0VspZpzqHajS9lJZEiyGS1FuWtoUZf+I50zhFK0hYyEHi7jhW18iP7vqzN09q0/Hje2bcO1s474jufOyIgWX/c2wrTL+jStIEeIR8Kt4ZmGtlAZhyVj6lz9CKztDxWjE38UltfL6NEiNsCNjnOV+Dk4+avBpxoWV9oL8gSeXNCRhxgFjvqGxUnv0PwKTlx/LDV7Kb6GO5V5oxq1HTLGdirdc9j/Wng3FUxHGwSKS8t42HmGW3AOHPMDswq3GEt0D9LTLrfxPfQxrF58U6KcqtxCJF+M8x9Kb6Ivsk8sovTLBxue5k0yrbxgEELDGY1/TBP50jwwS0M8jfYwNxd3bn7TMzLt6QMDbv3/WuailSFTthqL6QFbVjod6AaPmlZSA4Aj5Db+g61x1kbnYbasdQGx+nWuOexPcWjFPNIjVeeotlh7gcx23qqdCtF1ram62MbGIbY55P9Tyrn/TOo6X/DLwzJfcVTyy7TnaaZRhQMgiNOvYs3IAADnv2/BObo/SSWkUVvFZw+iPAX0/7RzH15fmarWiBVxeVbaJII4w08ozjGFC8iT2HQDmaDqKoZI5V/ETgTXXDpYVjYvJzztjqc++3LpyzWeWjTj6PzNxTgc9rNI7IwiViNRGQMfvVMeS1sWcGgSyTC5PNRkHsaaT8HRVD/AITbKNLMHIJwRnc/NQk70VSo1VsSoAURgj+XVvSoJZboWTBXTvz6GmOLyCFx6Rg9hmuOBXid2O+kZySCR+1cB9HpXQuo50qCWGMbe1OhZCbgnBJ+McTvHidI4FRmbUxBfB9WPjNHzSFk6VifjHkWfGZI4dTENgnHUDvk53rpLQISs33g3ipUhJlzE+x61iyQ5LiVcbR0a1LrHiDUyY2FeXPC4towZMcukhlwWwmkd5QuQ2CB3pccGpWRePyPWtnitmMi4PP6dBVpSUVZp41C2UW3mFmMo2I5dqnHJb2Z+tsKLRBC4QBgQc42ApntjSn+VR9PIHizGoBximnt2hHtC6COaBXmkkJc747VOK4saMlEiOIy59R5nPwKLk/AuTI5aoPsLxpHIIx1xjBpscqd0CLKrOfRxdgWJO/13oXsEH+nIu4zC0jNIoOoEAHtVavYW3KQnt1+y4luWwRkeo9OdJ5s2wio9hF5fJdIGTSRnG1LLb2Tzz4JNC57lyCIgdWea9fmjLIkqJffGhjbyu9lqA1OOud80+PLGtlIyckDTRSy2wacMsgHL3p5JTVkZbdELMPIHM5KkEhR15dqhFNydjY0Jr+1vY+JRNb3DmPO6gdKolXRpUPKHItJJZEuZPSoG+3Omac9+hFFuQ3n4RLK4fzjHqAOnTyrRGM2rLcCiOOCSbTIo57dOvzWWUIyMyxctjS70WVv91pOcZwetc19dOI7/MTy0kilt8yAB+/WnjXD+wQakDXUqO4Vt1G1JV9ha9AkohEg8krsOVGSXdk3jaPhM65yBn9KfvoSUKdAct1IAVdRjlnpQbrVAlHitjbg7KIwVOADuD1pK9D4adk+IrDcDTIPV2zg010tlJxi9so4ZZR2zMwI3PPPSl72Z+NS0WXFy+oiMgb4wa5SrRVq9oWXM+k6ZTluRP8A2oNNEcsGhrY3UVrwbzfSNKk4745VbEnJGj4sbirOWcXunv5pppnPl6iT7+wr0qo3rRjeKzmdpNO0e9KM3oUpxk3E7WvFJo1t5l0hiMFWHJq76bjcezlOgdOI2l3FJbcScI8e0dwdgRnqf2NJLDJU4/8AgyyJumAQ3Q+0TQo0GorrkMkirG4HJtWefxVHhb7QqyLqy2Bvtcs09qxMsKfeSqp0uvQHPM0OLj+WFS8oX3l7l41t0MMpGZHjPoPsFNVhj1slkyPpA8dvLJI0krI5Y5JUYx8Yp00lSJJN7Y3trMMcEqpG+pqV6RRKxlbQ5CkEtjJ5HNTGoZJEdI1K2COmBiuCVSoTkFcLz3FccAyeYCFjOx5Agj8utcKWQRksMiMsCSwcMSf+PPJ2+KZOkK9s1PhvhM13c4ELO7jCgD1ZJHLbA6/HT27kd0tnf/4eeH14XYxsyhZ5BtjoMnJzz39/61WHVmecrZsbeMBmIyU5KT196cVbK2tCx82QZdjgew9qRxvbH0gO/wCErPA+pQ33ZUZ9+dDgNGVHJvGX8PorizlSOMN5mc+xGcZ/SouLTL8k+ziPFvC03DpXt2jAlV/UcEAr3zy7fn7blSfkDqyvh0HlsuVKgYA77dTU+2OPJbddCOSQw/44pzgm3AC5J3zgnVXHHsqg4cLlTuTiuOJRJEyDTKTyOMY/euOJpZfaQY4gJHcEKMbk9AKKYrN/4J8CfZOFiWfXiWBlcauRLE4A6Dc700U27Iylqjj/APE1OHrxpY+HxRSEZ1TIxIA/CAegPpO3THXNPNqgY02yHhmRdUYGpT2FZX2akzsHhOdJIRDISSN1z1FY/kqlyIZvyro2dlMLbBGMDessZclZ5ssjTCH4kt0Vj0jSNqWVS0yyyOWiTKioAmw7VFwUGmmDMqjaBbnUSUVSRzx3qqmqIKVqizQyW4x+IfvTRkWgrF16JZIwY/UAfriu4+harYNFJGiYmwWwcjvSctPQLTCeGyM87kqyocertinxu/A0YpDNRH5okKgANy9qpGHItCDkmfXN/DKQFcDSeftSzbTpEJJxZAWtvcgtI4ZcEECug15NMJWhRNHG8jBCNC7Z60kk2zHmnyfEonwUxbEAnblvVU16KYPjKa5NhdrL5FmSJBrxXTdJM1Tgo6iDJfyzFhlW0jOMc+lcm8kqfRnq5HvDpPMlIlGDudu1MkuX+Rodk5J7SKUSSNk5xv8AlimUIrbZpyTUFSG8EH2maNmKhCQ2kHIHzT8G+ugQaohxPhr390ZkllCYCqFbbAp5J32Us9ltwlqr5XURyrPKNKxVUEJrriDGAowIYctsZqHPuzLKV2j7hN1JNkNkHnk1WErExJq7IyylJyc5I6ZpnGy0bsOsh9oiMpVsA4z3pFtlW7LoW+9GdOAd9t6dPiQab2iPGSsqJoGkg432oSdrRLLJtUC2WqJwByJ3NTtpoXG+KsaTywiMt/NjmByp5U0U5plVlFNdZeFR5edy3X4pYRk/Ayi2SltCFP8A/ZXN07CpcQKThxmXXMwVueM77VT+WwcXMQ8fumaJbaORQgO4HT61swQ4o2YsajGjFcVYNH5avhB26mtNlTK8QU5xpIUDOnsMVxzMXx6NWufNGvQnNh37VbGJLsTs7TSlk2Vhjnzq1eCLkUtEAhLnOOgFFqwDvhvFLiW0isC4FohJ0AY1H3PtUZRit1spBuqGMdmikExMcHbcUlhoKjghBX06SdxvvXBGdraxl1VNWCckkVO7GpNaGRQRtoV0JJOArZ2rv8jHqqAWwN8Y55rjiiVdIwcYHQjnXHA7+UT6yNB5rnn/AHopWLI1HhDgUF5cRtJGyqwwnqx8Z2HvyHTbNPxsm2kd78JeHrWztlkEKhm3Xvp9/nfamWNLsg5tmvgiCqxHpP8ASn0gJWFW0eIznGSMfShHZ3RbIuWUk5xyFM0dej50+7YbcsfSjXkAqv4omJWUAHVsfzocbYyk0cl/ivwW3Jhuhal3VcPpAz2B9xzHLbalnBFISb7OVTwQLImIvKA3P4cH8tiOxqDikyybJtGjInlMJCNyrAofpQaHLl9J0hdH5GuOJm331J92cbjfTXHHkkZCboe2VwR+dclZxqf4c2a3PGkDJnShYEj22P60HrQs+julrbIieWgwiKAANsVWDMslZyH+KngqC5uDdW0VmJ84VHVBqXHME+/T8qaVMMJNM4q9pecJvgl9GsYPWIkox7ex9qzyVGqEjc8GvdMSSI7ejBDZ3pJRUo0w5I3o6Hw65+02yvIxw2++2PavJyLg2jy546exrG0MduvlgFiBgmkjLVAvj0Ra4cPv+E70JrRzfLRJQ0il9elQd8danHfQFiTB/wDUPOdo42DaO1PHFO7Q7taQLDxR0ZlkQgKxxtVJSrVEql7KOJ2gmWO5t2Crtk9TmjkjqxqGvCriA2rISA4AB3rsTvReFN0LJXnlnkjd2UA9Oo6VdNRRflHGts8FnJKCNx8nnU+SyaRjzZYS2iJuDaDySxJxjOaV4+LpMlK0VQ3PmTMqKxPPOKVtozO2X3DpHBhWGvsetPBrjyZWOVqkLFiub9iiZjUfzZ/Wl5xy6iwttsZcM4WkEjKZQwAy5Y86fHjbdWacWNpWz0TpNf6YwdIyB707acrRytsEvbT7520YUH078zXN+xuDql2WJcXcGyNklcbcqZOcV+RnCcUGWHEL2K30My7E436VPllWuI+OWTj2D3d9NLIInYqgA2zzrszlLSJZMjlpF8McdwyowGroe1SSTewwhyHt3wiK2gWdHxkZz7Vq4aTKZIKKtCee2tyxfJLE880JflNkoPYxnuYouHwpbjO+BjlQaXD+y07UWxaGeG4iznDnrQcqdGaGVpBN86FlIG/M+9SfQuZ9NHkbFwNI+Nq7vQqXKNhtlapISsoyOfKuWmwwhT2E22bOd1ByuMjPSqRyONpFlOnSB5ZGN1lNwRy6VKTt2CUeTtirxHepHCVL4JG4DVpwo144Lswk0vmOVTJC/iPPftXopGjQm4swkT0DPq0gj9aLYDO8WdUSRGcBsBmBPToP61yOfRh5tMvmT3f/ALQBKrnmSdqtH+hP7Ysn0OiBkZFO4I5VSOuyUtqygQEKcgMeSg/vT8kKOfD0jWtysciIwk2YEZ/Wo5EnspBUaooqyrhEP9vaop0UrdhkYCKCqkr1CmupPoJaTIyZxpAO+qg9M5/0WeciArHGzMTu3Ja5f2EgqPKURRkn30qP71yVvRx5JJBDMsbPqzvsufk57UePsFlsaC4YJGdSjdVjA9R7E/59K6IJHTfAHBZlvVkuyHmdPSkfqEYPPJ5ZI29u9XjZnydnb7GApENWA+Nh0A6D+lMSGIjAwOXeklV7HiXKds1SNUKyJkGtgehpXKpM6j5jlgufc0wDIeJr+WFpPLAyiiUd8h8/sP1oc+I8Y2IeLG4u4Fki1K49LdtQOk5HYhQfr7UvNDKLWmcw8VWlraXYDW7W8+dyq6lx1I5fOMYIO2CCKnNLstBMQNakaZIvLlTO2k9e3z7GplCUseRpZsJ1DjH0PauOLIWS20q7uF6eksPiuOJuqYLRynA5HSRkdxvTJNHG6/hRBKeK5CvoIwS39R9OVTb/AFQJLR3FYlKEeoZ22qia6MpjfGXCuBXcUqcU4hNAzZkX70LpGACFzyHLPvVFfgF1s4z4v8NsvD0n4bfWl7ZO2VkMuG22wCSQcdQCfig4Sa0Ux5EnvoQeH5dMpRnGc6TpIIPSstUbO0bzhN2xjMErsVAGhSvI/PWsPy8SdNGTNCLWzW2StJZKFGcL+L+uKyRjSpdmHaPLh4w2nbbfHvQmr6By9EJ3E1qy42xvp2xTxjGrRTlrQh0TWmGt/Xk7496o5uK/CJO3thsEyyriSBsseZFS+xSbckdGSGaWEktnpjUKuMZPQfFNJ2qSG/l0U3HCJILZZLeXMqjOD1700VSXsrHRZLHqtFaMgTKDgkfmDVIxvsMsbyK7EvGbqa2sx5T6WO+Ov17VaSUY/kxPDQNwSZ+IAmXHPtnpUHl8NG2CUo0xlZQ6ZSpXQRzqUFzdI8/ImnRXxqKG2niMrZDnke+M1TJiUEm/I0YK0U21wgRhDjJqWKOLGmk9mlQVJB3DfNlDRRIzs5OSqZ/M08ZJJ/2a3uGhw/Bfslv9oAVTjHPqa5Rad0STrbFd3aLpV5LgGTOdOwouNxqRWMlWhNxGR9k0yaiRuBVYvwyc8joCeC7yPvByq36JxTkrHHFImjlydiNj7/FRm6Z3Bxeg6GWOCJHlV0Jwfk1NpPRWP5VhniG+lPh8CMNyABAqsnWHfgSbbi6ENtDIYdcmrJ33O9LxpEsdjS2dYbbEuCFziuulRaTuNA08xkKvp5d+1SkuVN+CP0VssaU3ABwc8t9hQasEknpjSFtMe65Yctt67Y91SPYrz7waRkcjSNuxXJss+0jzxqUnpQq3saN3oKuIUhi85EOcZJx0q31KO0W2cz8aXoM5VCNZODg9K14YurZrwp0Z62l82MW8DYIHqbOSD1raggt5IqzghSwjQhF7nvRXkJn7+30wu7lTLIdTfltXU3sLfoy99axzOBjKoM4xt7D96eL4k5RTWxXcW0izPhMrkDSRnnVU7Fq+im6LLHCiocxnS5G1Ml5Fk6IILiO5jd/QCQylsbCklTTO32b3zfLRRcw88bjf6jFZ32Wu0HW8ish8pUTf3/zFcAs8pmxpJlc9WO30FFOgnroiMI5MySdUQH9cf1oHHxjXGll36Ku4otatHFkVnENRdlVsfhXnQOoO4XZ650ChNIIXDA6VH/I9fj9KMVbBKqO3+BbaK3TSx8yVvUW04Pbcn9BWmtGJ9nQ7QZQnucCuAFDrnYDbNJJeR1ohG+WT/aV/rQUjmgVJSS2rYlj+9BvYfBNpjlmzuTgfSinu2CtCPiVt9olzpJ9Wnl0xvSy/RSL8HlhwxgincMUCt1zgY/aujF0dKSaAPFPhi24rYHzIlEiZ0Pj8J54+DiunC1oaE2mYW88CNFETEjZxyAz+nb/BUFotysUz+Gb6MASxhwq7alyCO3x7VylY/FGeu+GNaxlUWWNM4CkZx8d6a7EB7C3csI40YrnfA2H16UeJ3Z2/+GvBZLWyE3lhFbcu2ST8e1LGLbEyyXR0HA51VQ8maxHxPw5w6/eSW7t0mLjdZV1D+4o8LGUn0cS8Y/w7Njc3bcFu7yxV5PNELAyROQMAenZtsDBXVsN9qbjL3QYtI5hDK/DLtkmjwc4EkZBT8uf0qE4NGmM/DN9wO7jn8t3wyYxkHlUZrkmjskXJaOgWl/5NoUhwdQwB1rIrR503SYDbSkySa8knc1lcaZk27oFN5JFdsM6o87DPKuaoaLcey9Ecl5kdSMEhT1NT5STC5WgQcUkUsHjU9M8qonrY1+BtwLj0qyGGYal5k+1Orf59lMSd7AOM3t3FfvJbktEBkr2pnrQJ2mFcG4ktw2ZQVzsfap/ZTDiz8WD8es/PuvMQfdHGfmrSlLwDI12C2xFjIGGS3XbANZkm3b7Ejl4rRoCkt9b5KxoCu51bj4q6xyl0dx5uw7jfDbSXhyRlhqGNTcyRWp/mCvs0RSSpgnBeBW9uAyYkA5ltzWN4lY6igbinFZllMNuNCIcMw5DvRjmi/wAxRyz6ohecQuuLQR2lsQsa7Fj3rpSc/wAroSEfudCs8Mvk4vGA0sqAeokYB7U3BpqtnLFxH1/w+OzgFxe3SA4OiGL+p/tWraVyOcEu2JkuYcH0Hn2FLzJ3Embvz4lS4RcY2bqKH5emjXdaQQ0byQojEenBB6mll+qOmm+i77QTZGDywxAIGRnehLKox4tGem3xFYkvZJGUwMsab6jyI9q5ZrXRT65LVDCK3k8s6lJGd6Rb2HjRRPG7Jpj9XfPSinonLOnqgJHlhkzufmiTULVoYw3Mjx76ivfFSb2DcmeyrMYy1svq6DOCaZ6VmhY7VFUU88bAyABgwBDHlU4+wOLgP77imrhJwBqA2xsD7VrUuWi2KSfRxTxPOJJ5GdwxzkKpzWmqRsSA+FXCWtrPI51SOeY6e3tVlRIthQifW6qHZckHcAdvzNMts4z/ABostvJIVOt28tcbdaD0zhXLH9mSVSowrgacduf6UVb2zgVVEimUofMc6lzzzj9K5yoCFklrrvHeQkRR/iY75wO3enc/AJIAuNTEPIy7nICnkKdU1QrVGq4ReOlpEJEbyxsCFyCPfHKozVMZDuGRJGGFkc88Kv5DPOlGDnjkMeXbBA3VcgD2ON/pXX4OIhHVSnl+WgGCAMZotUcWAMdowVPUkbj4FBnF/kqgGpgffOM1w6GHDnWCRAgZ5nGAEGAnt7e5/wC9NEnNX0dp8EwqYwmNPLUR/OcbD4GdvnNaF/ZjkqOioixIqhQMbACu6FPpR9y+OxoNNoK7BlDGGI9Rn96m1XY4LIDqQjIORn86AS5Iz6ht6RXdnFotcaeuWJP5VRQsXkEiNUAwMAHaqcRWz6WMEHIyrbMK5xoZMFNorbcsdqm42NZTJw6KRSrKCD3FJxY32MzvE/CwlkPpDLjnpyfr3ofWNGaA+H+CI47v7QYYXx/vJBocZN0N9iRvbeIxQKrEZAxsNq0Rx1HfZmk7ZM7UjXkAPJbLKH1agWGMg71NWxro5/4zgFswjnkd1YDSSgYbHYMCdxzwwwR9MVRX0w36OOeJOGCSSYNKkuk5jWZwXHPCgnmeeO+OZ50s4PovCSfYq4M7WrAAgop3BBUj5FZdo1HQeGOXhQQMzE7YzWLO+Mr8Hj/Mg3PQ1ZE4cmXfWz8/c9vipqHHcuyNLGJrmQzTkxnBz05b+1JJvwK3y0GW8skOI3O34TiskYScrkI4thMsMUiHDAZHQcqvyrSLJWSsIXyY0OrUc5Axy5CrYp1ddlYSSCrFRDclJBqKjVk96EldGiNPsDvriH7a5jUDBxsOdSnBJkZx3oJu5Xj4YGSMkgfzDniqSt4hcuO467EaCaaeOSRCEz15GpRbaJqFIa30N3MFNuRGgHQf0rV+l/gb62VzSSFI1VnJBxj396XI32nSJy1pGmgvvItI7f8A+4wyxxj5rk1K2XWTRn75IldtRznoNsmp8IXrQmkAQ3NwbpfsyEjUAqKPekb4vjFD45bpGguYLiJk+03CoX3Kod/zrU3kX9Idw3VlV6EOgL63PJeZoTfFfk7hydIHe3socJc5abGX08ge1PHBFq59iSxxToV+Q0bqwfUDtvypY29JgTk3VhPEBMGTyzjP82c42otcdmqLqOyzhd21rfxCVC6n05xnHvU6XJNknuSaNNdT2sKmRgAjDOCOdLkpPRug3Rnp+KiWUrHjSd8mh06MuXJFukQs3mWZt9SNypkqZmkthF5bBzq2HxR4st9dLsnEVWJY8b8s9BSNXoRtrRZayRQSZck9CM5BFPFNDwbRdei2uoNceEK/pSSV7R05uSozHHbsQ2rRCRm6kZ51r+PjcVbL/GhxVnLuNzmSciZikannp5VoNYDb3gLjSpFum+juen61WiPRooCWWSVz6lXH50/SDQpulCNHr9QjOtj0B5/XoK5dAoAltdNogJV5H1Ekdzt+eK5dneBJxJJYBOYRpVFCgjffr/nvXKguLQvVneLyrksBnUxPX2rmKv7F184klIAYY6+9ViqFkaHg0wMKKUj5DPL8/mozWxk9GpsQZAoTKpjY6SAR36ZpRrsbW0Qij1plmP8A9xgBj47fNM2jqtnjESy+XbwtgfzEZLHvzA/P/tRasB9Hb6EJVS+Tsc51e2e3xS0kFKycNpK0oaQerOc4/QDvS3bHUaNBwThpW9QeUp1DGD+Eb75Oen600XQsjsfgmwcgTurJAD6WYYaYjrjoo6VeMr2Y8iNqAWbV1xgVREz2TZTgUX0cuyiBdPpPPVkUg7PpI8yIemoUrhsCZeFUAgdedUjGkLZ62zL7mm0gHrDOR3FdJUjj4boM8zXLqglbqeYOOlSa2MpE1BIqiQrJaaZQoB6BTpaOPTyrmtHFLHAydhWNukFHkblsED0kZ350YS/oLQk8V21rLw2Zr2HzYAjawEyQDsSMerty7VfsCdH568Y2MTaY7eeS4sUbKJOuCp6gMBz/AEPOpT0jTDZkLU6JDpwFBzhdse3UVjkakdF8DSRm2dZCVYAkauY+Kz5Ix7Zi+RG9jz7KbqCZjIS4yFA6Y5Csbbk3Js86TVgfB7CcySNjJx17UnOmdGHLaGBt431CVsMOg50uL9bZTH6KHQxDS5OOe9c4bC4cS+zfy0+7LMx3JzVWuPQrT7QXYRMuuSZss/8AXkKaOuzVgX52C3lgkL+fIwA56enzU2t9jOPHYTqnuLMAFPL5gHmaq1yVIDVoGspRho2j1MDu2M1LG1tGblaoYPPmMNyQDlmr8+W6KPoogj8x/MzgDlWTlKctLRlclei0T25eTDZZf5jV4r2VjJC+O3munwNSqew3pncv46HjichjIpsQsduVU4wWO5rscXDrs0NRj10C3bALqkcyTHGxPWmnaVsEqolaR/8ArlQyBpGHqPRdjtU4xcak+2GLoU3DTx3M6qpZdZwe4rS5yToztOz/2Q==;movable=1;resizable=1;rotatable=1;deletable=1;editable=1;locked=0;connectable=1;" vertex="1" parent="1">
          <mxGeometry x="55" y="127.41000000000001" width="90" height="67.68" as="geometry" />
        </mxCell>
        <mxCell id="RZ4zh-SZTSbHHupTfMwR-44" value="..." style="whiteSpace=wrap;html=1;aspect=fixed;" vertex="1" parent="1">
          <mxGeometry x="550" y="151.24999999999997" width="30" height="30" as="geometry" />
        </mxCell>
        <mxCell id="RZ4zh-SZTSbHHupTfMwR-45" value="0.2" style="whiteSpace=wrap;html=1;aspect=fixed;" vertex="1" parent="1">
          <mxGeometry x="550" y="181.24999999999997" width="30" height="30" as="geometry" />
        </mxCell>
        <mxCell id="RZ4zh-SZTSbHHupTfMwR-47" value="0.4" style="whiteSpace=wrap;html=1;aspect=fixed;" vertex="1" parent="1">
          <mxGeometry x="550" y="124.33" width="30" height="30" as="geometry" />
        </mxCell>
        <mxCell id="RZ4zh-SZTSbHHupTfMwR-52" value="" style="shape=flexArrow;endArrow=classic;html=1;rounded=0;" edge="1" parent="1">
          <mxGeometry width="50" height="50" relative="1" as="geometry">
            <mxPoint x="99.71000000000001" y="268.75" as="sourcePoint" />
            <mxPoint x="99.71000000000001" y="200" as="targetPoint" />
          </mxGeometry>
        </mxCell>
        <mxCell id="RZ4zh-SZTSbHHupTfMwR-53" value="" style="shape=flexArrow;endArrow=classic;html=1;rounded=0;" edge="1" parent="1">
          <mxGeometry width="50" height="50" relative="1" as="geometry">
            <mxPoint x="470" y="268.75" as="sourcePoint" />
            <mxPoint x="470" y="200" as="targetPoint" />
          </mxGeometry>
        </mxCell>
        <mxCell id="RZ4zh-SZTSbHHupTfMwR-54" value="" style="shape=flexArrow;endArrow=classic;html=1;rounded=0;" edge="1" parent="1">
          <mxGeometry width="50" height="50" relative="1" as="geometry">
            <mxPoint x="565" y="270" as="sourcePoint" />
            <mxPoint x="564.71" y="211.25" as="targetPoint" />
          </mxGeometry>
        </mxCell>
        <mxCell id="RZ4zh-SZTSbHHupTfMwR-55" value="Integrated Gradients" style="rounded=0;whiteSpace=wrap;html=1;" vertex="1" parent="1">
          <mxGeometry x="55" y="260" width="90" height="40" as="geometry" />
        </mxCell>
        <mxCell id="RZ4zh-SZTSbHHupTfMwR-56" value="GradCAM" style="rounded=0;whiteSpace=wrap;html=1;" vertex="1" parent="1">
          <mxGeometry x="422.5" y="260" width="90" height="40" as="geometry" />
        </mxCell>
        <mxCell id="RZ4zh-SZTSbHHupTfMwR-58" value="KernelSHAP" style="rounded=0;whiteSpace=wrap;html=1;" vertex="1" parent="1">
          <mxGeometry x="521" y="260" width="90" height="40" as="geometry" />
        </mxCell>
        <mxCell id="RZ4zh-SZTSbHHupTfMwR-61" value="" style="shape=curlyBracket;whiteSpace=wrap;html=1;rounded=1;labelPosition=left;verticalLabelPosition=middle;align=right;verticalAlign=middle;rotation=90;" vertex="1" parent="1">
          <mxGeometry x="333.5" y="-95" width="20" height="350" as="geometry" />
        </mxCell>
        <mxCell id="RZ4zh-SZTSbHHupTfMwR-62" value="&lt;span style=&quot;font-size: 18px;&quot;&gt;Places analyzed by different explanation methods&lt;/span&gt;" style="text;strokeColor=none;fillColor=none;html=1;fontSize=24;fontStyle=1;verticalAlign=middle;align=center;" vertex="1" parent="1">
          <mxGeometry x="293.5" width="100" height="40" as="geometry" />
        </mxCell>
        <mxCell id="RZ4zh-SZTSbHHupTfMwR-64" value="Neural Network" style="text;html=1;align=center;verticalAlign=middle;resizable=0;points=[];autosize=1;strokeColor=none;fillColor=none;" vertex="1" parent="1">
          <mxGeometry x="288.5" y="40" width="110" height="30" as="geometry" />
        </mxCell>
        <mxCell id="RZ4zh-SZTSbHHupTfMwR-65" value="" style="shape=curlyBracket;whiteSpace=wrap;html=1;rounded=1;labelPosition=left;verticalLabelPosition=middle;align=right;verticalAlign=middle;rotation=90;" vertex="1" parent="1">
          <mxGeometry x="87.5" y="32.5" width="20" height="95" as="geometry" />
        </mxCell>
        <mxCell id="RZ4zh-SZTSbHHupTfMwR-66" value="Input Image" style="text;html=1;align=center;verticalAlign=middle;resizable=0;points=[];autosize=1;strokeColor=none;fillColor=none;" vertex="1" parent="1">
          <mxGeometry x="55" y="40" width="90" height="30" as="geometry" />
        </mxCell>
        <mxCell id="RZ4zh-SZTSbHHupTfMwR-67" value="" style="shape=curlyBracket;whiteSpace=wrap;html=1;rounded=1;labelPosition=left;verticalLabelPosition=middle;align=right;verticalAlign=middle;rotation=90;" vertex="1" parent="1">
          <mxGeometry x="553.75" y="41.25" width="20" height="77.5" as="geometry" />
        </mxCell>
        <mxCell id="RZ4zh-SZTSbHHupTfMwR-68" value="Prediction" style="text;html=1;align=center;verticalAlign=middle;resizable=0;points=[];autosize=1;strokeColor=none;fillColor=none;" vertex="1" parent="1">
          <mxGeometry x="523.75" y="40" width="80" height="30" as="geometry" />
        </mxCell>
      </root>
    </mxGraphModel>
  </diagram>
</mxfile>
